<?xml version="1.0" standalone="no"?>
<!DOCTYPE svg PUBLIC "-//W3C//DTD SVG 20010904//EN"
 "http://www.w3.org/TR/2001/REC-SVG-20010904/DTD/svg10.dtd">
<svg version="1.0" xmlns="http://www.w3.org/2000/svg"
 width="530.000000pt" height="1013.000000pt" viewBox="0 0 530.000000 1013.000000"
 preserveAspectRatio="xMidYMid meet">

<g transform="translate(0.000000,1013.000000) scale(0.100000,-0.100000)"
fill="#000000" stroke="none">
<path d="M2800 8530 l0 -1600 1098 0 1098 0 -28 133 c-15 72 -28 136 -28 140
0 4 24 7 53 5 28 -2 51 -7 51 -13 -1 -5 -4 -21 -8 -35 -4 -16 0 -13 11 10 l16
35 9 -34 c6 -20 6 -36 0 -40 -4 -3 -11 -14 -15 -24 -4 -10 -11 -16 -17 -12 -5
3 -5 -8 2 -26 7 -20 21 -36 39 -42 21 -8 30 -22 40 -54 l12 -43 83 0 84 0 0
475 0 476 -22 10 -23 10 23 -5 c24 -5 28 4 10 22 -9 9 -9 12 0 12 8 0 11 21
10 68 -1 43 -3 53 -5 28 -5 -40 -48 -116 -67 -116 -6 0 -18 -4 -26 -10 -18
-11 -15 -78 5 -100 11 -12 11 -19 1 -39 -14 -26 -10 -70 8 -72 6 -1 16 -2 21
-4 6 -1 16 -3 23 -3 6 -1 12 -6 12 -12 0 -5 -20 -10 -44 -10 -42 0 -74 -19
-58 -34 4 -4 -1 -12 -11 -17 -11 -7 -17 -22 -17 -44 0 -25 -5 -35 -21 -40 -12
-4 -25 -3 -29 2 -12 12 -52 135 -110 338 -28 99 -60 209 -71 244 -11 35 -18
66 -15 68 2 2 13 5 25 6 13 1 21 8 21 19 0 14 -8 18 -32 18 l-33 0 -37 126
-36 127 20 27 c21 29 58 31 58 4 0 -8 9 -14 19 -14 33 0 32 -17 -1 -24 -32 -6
-58 -23 -58 -36 0 -5 23 -16 50 -25 42 -14 50 -20 50 -42 0 -20 -4 -24 -20
-20 -27 7 -40 -18 -26 -49 11 -23 34 -39 44 -30 2 3 8 132 13 288 4 156 11
333 14 393 3 61 12 232 20 380 8 149 17 324 20 390 l6 120 -34 -90 c-18 -49
-39 -101 -46 -113 -11 -21 -10 -26 8 -39 28 -19 27 -33 -18 -176 -22 -68 -54
-183 -72 -257 l-32 -133 -17 81 c-18 90 -32 112 -96 143 -33 15 -44 27 -44 44
0 22 2 22 79 19 l78 -4 7 113 c12 203 17 237 36 237 15 0 16 -10 13 -82 l-3
-83 19 55 c11 30 20 64 20 75 1 12 5 25 10 30 5 6 21 48 36 95 14 47 29 91 32
99 3 8 0 12 -8 9 -7 -2 -23 -33 -36 -69 l-23 -64 6 100 c4 63 11 106 20 116 8
8 14 35 14 60 l1 44 28 -33 28 -33 7 32 c3 17 6 51 6 75 l0 44 -111 0 -110 0
3 -27 c2 -20 8 -28 22 -26 13 1 15 -2 7 -10 -15 -15 -41 10 -41 39 l0 24 -455
0 -455 0 0 -392 c0 -258 4 -388 10 -378 8 12 10 12 10 1 0 -11 3 -11 15 -1 10
9 15 9 15 1 0 -6 4 -10 8 -8 4 1 26 -17 48 -40 l41 -43 -34 0 c-46 0 -95 -22
-121 -55 l-22 -28 -1 342 c-1 187 -3 350 -4 361 -1 11 -3 70 -4 130 l-1 110
-255 0 -256 0 5 -202 c5 -195 5 -200 -8 -113 -11 80 -12 44 -10 -335 3 -457
-3 -406 -25 215 -6 171 -14 338 -17 373 l-6 62 -239 0 -239 0 0 -1600z m2087
1302 c-4 -77 -2 -110 5 -106 6 4 9 1 6 -6 -2 -7 -15 -15 -27 -17 l-24 -3 5
134 c3 73 9 139 13 147 17 27 27 -39 22 -149z m-440 42 c0 -14 -9 -16 -66 -10
-36 3 -79 6 -96 7 -65 1 10 18 86 18 64 1 76 -2 76 -15z m-481 -1296 c-3 -7
-7 -25 -10 -40 -5 -22 -12 -28 -32 -28 -24 0 -25 3 -19 33 4 17 11 36 16 42 5
5 9 17 9 27 0 17 1 17 20 -2 11 -11 18 -25 16 -32z m679 -76 c-22 -5 -29 3
-21 25 7 17 8 17 22 -2 13 -18 13 -20 -1 -23z m-778 -199 c-2 -16 -4 -3 -4 27
0 30 2 43 4 28 2 -16 2 -40 0 -55z m903 -233 c0 -28 -3 -30 -35 -30 -32 0 -35
2 -35 30 0 28 3 30 35 30 32 0 35 -2 35 -30z m117 -22 c-3 -8 -6 -5 -6 6 -1
11 2 17 5 13 3 -3 4 -12 1 -19z m333 -178 c0 -5 -7 -7 -15 -4 -8 4 -15 8 -15
10 0 2 7 4 15 4 8 0 15 -4 15 -10z m-460 -110 c0 -5 8 -10 18 -10 13 0 14 -2
4 -9 -16 -10 -6 -114 28 -291 11 -58 25 -141 32 -184 9 -62 15 -80 30 -84 28
-7 21 -22 -11 -22 -35 0 -30 -15 -66 230 -14 96 -32 216 -40 265 -18 107 -18
115 -5 115 6 0 10 -4 10 -10z m-500 -115 c0 -18 -5 -25 -20 -25 -15 0 -20 7
-20 25 0 18 5 25 20 25 15 0 20 -7 20 -25z m468 -20 c1 -13 -3 -27 -8 -30 -6
-4 -10 7 -10 24 0 37 15 42 18 6z m516 19 c22 -8 20 -19 -4 -21 -11 -1 -20 4
-20 13 0 16 2 16 24 8z m-264 -101 c0 -7 -39 17 -46 28 -3 6 5 3 20 -6 14 -10
26 -19 26 -22z m70 -85 c0 -2 5 -30 10 -63 29 -165 15 -190 -22 -39 -24 99
-24 104 -7 104 11 0 19 -1 19 -2z m-26 -173 c4 -12 -3 -15 -34 -15 -29 0 -40
4 -40 15 0 10 10 15 34 15 21 0 36 -6 40 -15z m-154 -20 c0 -8 -2 -15 -4 -15
-2 0 -6 7 -10 15 -3 8 -1 15 4 15 6 0 10 -7 10 -15z m238 -79 c7 -21 8 -44 4
-52 -6 -11 -13 1 -24 41 -18 64 -1 73 20 11z"/>
<path d="M5111 10108 c7 -13 18 -26 25 -31 7 -4 11 -13 8 -20 -2 -7 5 -22 16
-34 11 -12 20 -27 20 -33 0 -5 5 -10 10 -10 6 0 10 -7 10 -15 0 -8 4 -15 8
-15 5 0 14 -16 22 -35 8 -19 20 -35 27 -35 7 0 13 -9 13 -21 0 -11 4 -18 9
-15 5 4 12 0 14 -6 3 -7 6 56 6 140 l1 152 -100 0 -101 0 12 -22z"/>
<path d="M80 8525 l0 -55 -40 0 -40 0 0 -355 c0 -324 1 -355 17 -355 15 0 15
-1 -1 -18 -15 -17 -16 -53 -16 -338 1 -193 4 -313 10 -304 17 27 20 3 5 -34
-12 -29 -15 -82 -15 -271 1 -130 5 -233 10 -230 13 8 63 -80 108 -190 23 -55
69 -167 103 -250 81 -197 115 -292 107 -300 -14 -14 -93 21 -128 58 -36 37
-40 47 -69 182 l-9 40 -1 -40 c0 -22 6 -69 14 -105 19 -85 18 -133 -1 -222 -9
-40 -18 -89 -21 -108 -2 -19 -7 -37 -11 -40 -9 -6 -9 -21 1 -36 3 -7 2 -36 -3
-65 -9 -52 -23 -248 -21 -299 1 -14 2 -46 4 -72 l2 -46 45 -5 c25 -3 482 -6
1015 -7 883 -1 973 0 1003 15 26 13 36 14 47 5 19 -15 40 0 49 34 3 12 16 27
29 33 18 8 26 23 32 55 l8 43 8 -69 c14 -128 -4 -116 174 -116 l155 0 0 -850
0 -850 656 0 c605 0 656 1 650 16 -4 10 -9 50 -13 90 l-6 74 -66 2 c-36 0 -90
0 -118 -1 -57 -3 -60 1 -44 58 7 24 8 25 117 22 l111 -2 7 158 c3 87 9 202 13
255 l6 97 -128 3 -128 3 -3 40 c-2 28 -1 34 5 20 8 -19 8 -19 15 3 4 13 13 21
20 19 7 -3 58 -8 114 -12 l101 -7 4 33 c10 68 31 306 34 397 l4 94 -98 -2
c-54 -1 -100 -2 -103 -1 -22 8 -80 6 -80 -3 0 -6 -5 -4 -10 4 -26 40 7 157 50
180 11 6 19 14 17 18 -3 4 -1 16 4 27 5 14 8 5 8 -32 1 -70 -5 -84 -35 -77
-19 5 -24 2 -23 -12 0 -11 3 -14 5 -7 3 7 12 9 20 6 18 -7 18 -23 0 -23 -14 0
-26 -21 -26 -46 0 -16 36 -19 45 -3 4 6 -2 13 -14 16 -25 6 -18 23 10 23 12 0
19 7 19 19 0 13 6 18 17 16 61 -12 75 -17 69 -22 -15 -15 20 -33 64 -33 64 0
80 7 80 36 0 13 5 24 11 24 5 0 8 4 5 8 -6 9 10 85 25 124 l11 27 22 -41 22
-42 -22 -65 c-57 -167 -84 -266 -89 -328 l-5 -68 14 65 c8 36 26 94 40 130 15
36 38 106 51 155 29 110 59 193 74 208 15 15 15 2 -10 -271 -12 -128 -19 -235
-16 -238 3 -3 11 -3 17 1 9 6 9 10 -1 16 -20 12 34 22 92 17 28 -3 56 -11 62
-17 9 -10 3 -11 -28 -6 l-40 6 38 -15 c55 -20 54 -24 -2 -18 -27 2 -72 -1
-100 -8 -46 -11 -51 -15 -50 -38 0 -25 1 -26 9 -6 10 26 15 30 58 39 32 7 33
6 23 -13 -13 -25 -15 -192 -2 -192 13 0 23 -73 19 -130 l-3 -45 -22 45 c-12
25 -24 59 -26 75 -2 17 -6 37 -10 45 -3 8 -10 38 -17 65 -25 114 -31 82 -26
-130 3 -115 8 -311 10 -435 4 -190 3 -205 -4 -100 -5 69 -14 229 -21 355 -6
127 -14 271 -18 320 l-6 90 -7 -55 c-4 -30 -11 -100 -15 -155 -5 -76 -9 -92
-14 -65 l-6 35 -3 -35 c-2 -19 -5 -57 -7 -85 -3 -27 -6 -86 -8 -130 -3 -79
-11 -207 -18 -275 -2 -19 -8 -92 -12 -162 l-8 -128 76 0 76 0 4 57 3 58 2 -57
2 -58 350 0 350 0 0 76 c0 54 4 80 15 90 8 9 15 27 15 42 0 20 3 23 12 14 12
-12 18 -202 6 -202 -5 0 -8 -4 -8 -10 0 -6 38 -10 95 -10 80 0 93 2 89 15 -4
10 0 15 15 15 13 0 21 -6 21 -17 0 -9 3 -14 6 -11 3 4 -2 44 -10 90 -23 121
-22 128 14 128 l30 0 0 -110 0 -110 65 0 65 0 0 324 0 324 -35 121 c-19 66
-35 129 -35 140 0 11 -5 23 -11 27 -19 11 3 695 22 702 5 2 9 10 9 18 0 9 -4
12 -10 9 -7 -4 -8 30 -5 97 2 57 7 189 10 293 3 105 14 384 25 620 10 237 22
499 25 583 l6 152 -85 0 c-47 0 -87 -4 -90 -8 -3 -4 -1 -26 4 -48 6 -24 6 -40
0 -42 -6 -2 -10 -32 -10 -67 0 -35 -4 -66 -9 -69 -5 -3 -9 0 -8 7 0 6 -1 30
-3 52 -2 22 -6 -21 -10 -95 -20 -377 -21 -425 -11 -410 9 13 11 13 11 -2 0
-16 5 -19 25 -18 10 1 35 -28 35 -40 0 -6 -6 -8 -12 -4 -7 4 -5 -2 5 -13 9
-11 17 -25 17 -32 0 -7 5 -9 10 -6 6 4 10 -7 9 -27 0 -26 -2 -29 -8 -14 -7 18
-8 18 -14 -5 -4 -13 -6 -37 -6 -54 l1 -30 9 30 c8 32 6 -33 -7 -168 l-6 -68
-37 3 c-60 5 -67 30 -60 200 4 79 7 199 7 268 0 112 -1 119 -10 70 -5 -30 -15
-59 -20 -65 -8 -7 -9 -5 -5 7 3 10 3 19 -2 22 -4 3 -20 -47 -36 -110 -30 -123
-51 -152 -41 -56 6 53 36 687 36 760 l0 32 -640 0 -640 0 -1 -947 c-1 -522 -4
-993 -8 -1048 -3 -55 -10 274 -14 730 -4 457 -10 928 -13 1048 l-7 217 -329 0
-330 0 7 -202 c7 -194 4 -235 -9 -158 -14 73 -18 108 -26 225 -6 85 -7 42 -3
-142 4 -169 2 -263 -4 -263 -6 0 -13 68 -16 163 -4 89 -10 210 -14 270 l-6
107 -139 0 -138 0 -2 -132 -1 -133 -7 90 c-6 83 -15 122 -29 135 -18 16 -30
50 -19 56 6 4 8 3 4 -4 -3 -6 -2 -13 4 -17 16 -10 11 32 -6 50 -9 8 -14 24
-11 34 2 11 -4 32 -14 47 -13 21 -17 40 -13 78 3 28 10 54 17 58 9 6 9 8 0 8
-18 0 -16 28 2 47 12 12 13 18 4 29 -11 13 -6 18 14 15 14 -2 19 27 7 49 -7
13 -8 20 -2 16 30 -18 37 70 8 97 -16 14 -16 17 -3 17 9 0 19 5 23 11 5 8 -1
10 -18 6 -26 -7 -26 -6 -16 33 8 29 16 40 29 40 18 0 19 16 19 423 0 232 3
473 7 536 l6 114 -48 -5 c-26 -3 -51 -12 -56 -19 -8 -12 -11 -11 -19 1 -8 12
-11 13 -19 1 -6 -9 -10 -10 -16 -2 -4 8 -22 -2 -53 -29 -26 -23 -52 -44 -57
-48 -6 -4 -38 -31 -73 -60 -34 -30 -62 -49 -62 -44 0 5 21 27 46 48 26 22 61
53 79 69 17 17 47 42 65 58 28 22 30 27 14 27 -10 0 -42 -22 -69 -48 -72 -67
-155 -135 -155 -125 0 5 18 27 40 48 22 21 40 45 40 53 0 7 4 11 9 7 15 -8 21
9 9 25 -8 12 -9 12 -4 -2 10 -31 -5 -19 -15 12 -11 31 -49 43 -49 16 0 -25
-22 -30 -40 -9 -15 19 -30 20 -420 25 -223 2 -413 2 -423 0 -15 -3 -9 -13 34
-53 29 -27 56 -49 61 -49 13 0 55 -92 67 -148 6 -29 11 -88 11 -131 l0 -78
-95 -28 c-60 -18 -103 -37 -116 -52 l-22 -23 32 0 c18 0 64 7 102 17 81 19
103 11 89 -36 -17 -59 -29 -69 -83 -65 -27 2 -55 8 -61 13 -18 14 -86 6 -104
-13 -16 -17 -16 -19 2 -29 10 -7 34 -24 53 -39 20 -15 39 -25 44 -22 5 3 9 1
9 -4 0 -16 49 -23 70 -12 19 10 20 7 20 -42 -1 -115 -17 -188 -53 -242 -18
-28 -48 -73 -65 -101 -17 -27 -54 -72 -82 -100 -63 -61 -76 -86 -79 -147 -1
-25 -4 -56 -6 -68 -5 -26 16 -50 43 -50 10 0 39 11 65 23 37 19 55 23 90 17
49 -7 48 -7 147 -79 122 -89 165 -129 267 -243 105 -119 164 -171 171 -150 2
8 13 3 32 -15 16 -16 47 -46 70 -68 23 -22 56 -69 73 -105 32 -64 32 -67 32
-210 0 -131 -3 -156 -32 -261 -56 -207 -127 -361 -197 -428 l-35 -34 -12 29
c-26 65 -63 143 -66 140 -2 -2 4 -19 12 -39 23 -55 20 -121 -7 -152 l-23 -26
-37 21 c-32 17 -57 20 -160 21 -90 0 -142 5 -193 20 -38 10 -99 24 -135 30
-161 27 -238 52 -413 133 -43 20 -131 50 -195 67 -148 39 -166 47 -172 84 -6
33 -30 36 -61 9 -23 -20 -49 -18 -49 5 0 41 18 70 47 73 25 3 28 7 25 33 -4
32 -62 219 -94 300 -76 195 -126 304 -181 397 -21 37 -36 71 -33 76 3 5 46 22
96 37 49 16 88 30 86 32 -2 2 -29 0 -60 -5 -31 -5 -56 -8 -56 -6 0 10 76 84
86 84 7 0 15 7 18 16 4 9 13 14 21 10 18 -7 20 5 3 23 -11 10 -9 12 6 9 15 -2
21 5 28 29 5 18 26 51 48 73 22 23 40 49 40 58 0 28 50 216 60 226 8 8 52 -34
74 -73 5 -9 12 -18 15 -21 4 -3 21 -27 38 -55 38 -58 108 -135 124 -135 8 0 8
4 0 14 -19 23 -50 116 -39 116 6 0 7 8 3 18 -5 13 -2 12 14 -4 10 -12 39 -31
64 -43 24 -12 52 -30 62 -41 15 -17 19 -17 32 -5 8 8 27 15 42 15 24 0 31 -7
45 -44 25 -65 46 -68 46 -6 0 28 0 53 0 58 0 4 -19 8 -42 10 -82 6 -211 96
-372 258 -74 75 -116 146 -116 195 0 35 60 105 83 96 9 -3 30 27 60 84 74 142
131 206 173 198 5 -1 11 -1 14 1 21 8 60 7 60 -2 0 -6 6 -6 15 2 8 7 15 9 15
4 0 -5 4 -2 10 6 7 12 16 12 49 4 l41 -11 -22 36 c-28 45 -36 53 -71 69 -24
10 -26 15 -17 32 17 32 39 23 72 -30 17 -27 33 -50 35 -50 9 0 -32 68 -58 95
-20 21 -26 34 -19 44 7 12 16 10 49 -13 41 -28 41 -29 42 -95 2 -106 16 -142
18 -44 l1 82 27 -2 c41 -3 42 32 4 76 -18 20 -32 47 -32 63 -1 24 -2 25 -6 7
-5 -26 -11 -28 -36 -9 -14 11 -17 23 -13 53 6 44 56 193 85 253 11 23 15 40 9
38 -13 -5 -21 -18 -42 -73 l-15 -40 0 33 c-1 18 4 43 10 55 9 16 9 22 0 25 -6
2 -11 26 -11 58 l0 54 -500 0 -500 0 0 -55z m193 -22 c-7 -2 -21 -2 -30 0 -10
3 -4 5 12 5 17 0 24 -2 18 -5z m57 -40 c0 -9 -1 -14 -3 -12 -1 2 -11 15 -22
28 l-20 24 23 -12 c12 -6 22 -19 22 -28z m-145 -9 c-8 -16 -15 -23 -15 -16 0
17 20 55 26 49 2 -2 -2 -17 -11 -33z m96 -1 c12 -16 12 -17 -1 -7 -8 6 -22 14
-30 17 -13 5 -12 6 1 6 9 1 23 -7 30 -16z m197 4 c31 -24 -3 -82 -44 -74 -16
3 -24 -2 -27 -15 -9 -32 -29 -21 -23 12 3 17 8 43 11 58 5 24 11 29 38 29 18
0 38 -4 45 -10z m82 2 c0 -5 -9 -13 -20 -19 -12 -6 -20 -21 -20 -35 0 -15 -6
-25 -15 -25 -14 0 -14 30 0 76 4 13 55 16 55 3z m32 -38 c-4 -19 -14 -37 -21
-39 -11 -4 -12 4 -6 34 8 47 15 58 25 47 5 -4 5 -23 2 -42z m45 19 l6 -31 18
31 c29 47 41 36 17 -15 -26 -54 -53 -60 -62 -14 -9 44 -8 59 4 59 6 0 13 -14
17 -30z m155 -11 c-5 -47 -8 -49 -52 -49 -47 0 -61 27 -35 66 13 20 22 24 53
21 35 -4 37 -6 34 -38z m95 26 c8 -22 -4 -30 -21 -16 -19 16 -36 6 -36 -20 0
-21 20 -25 37 -8 7 7 13 7 17 1 9 -15 -20 -34 -45 -30 -35 5 -46 31 -26 62 20
29 64 36 74 11z m49 -12 l11 -28 13 28 c13 27 30 37 30 17 0 -5 -14 -32 -31
-60 -31 -50 -56 -67 -44 -30 3 10 2 35 -3 54 -15 51 6 67 24 19z m-711 -3 c-4
-12 -1 -28 7 -38 12 -15 11 -16 -4 -3 -18 14 -24 42 -11 54 12 12 14 7 8 -13z
m2075 -31 c0 -5 -9 -9 -20 -9 -11 0 -20 6 -20 14 0 9 7 12 20 9 11 -3 20 -9
20 -14z m-1983 -36 c-14 -14 -19 -15 -29 -4 -11 10 -10 11 4 6 12 -5 20 -1 24
9 4 9 9 14 12 11 3 -3 -2 -13 -11 -22z m-97 -12 c-5 -11 -15 -23 -21 -27 -6
-3 -3 5 6 20 20 30 30 35 15 7z m836 -89 c-14 -23 -29 -68 -27 -82 1 -9 -1
-11 -6 -5 -4 6 -15 10 -23 10 -13 0 -18 36 -11 75 1 3 17 7 37 8 20 2 33 -1
30 -6z m-81 -172 c3 -6 -1 -13 -10 -16 -19 -8 -30 0 -20 15 8 14 22 14 30 1z
m0 -198 c-34 -4 -42 3 -25 23 12 14 15 14 33 -2 19 -18 19 -18 -8 -21z m464
-115 c14 -17 4 -27 -26 -27 -21 0 -22 2 -11 20 15 24 22 25 37 7z m-1402 -619
c-3 -8 -6 -5 -6 6 -1 11 2 17 5 13 3 -3 4 -12 1 -19z m3 -27 c0 -6 -4 -13 -10
-16 -5 -3 -10 1 -10 9 0 9 5 16 10 16 6 0 10 -4 10 -9z m1611 -92 c11 -5 17
-14 14 -18 -2 -5 3 -8 12 -7 25 2 73 -96 73 -151 l0 -45 -47 40 c-27 22 -60
51 -75 65 -15 14 -43 38 -63 53 -37 28 -44 44 -20 44 8 0 15 6 15 13 1 7 6 4
15 -6 7 -11 11 -25 8 -33 -3 -8 0 -14 5 -14 6 0 16 16 23 35 15 39 13 39 40
24z m376 -131 c-3 -7 -5 -2 -5 12 0 14 2 19 5 13 2 -7 2 -19 0 -25z m2592
-272 c10 -11 8 -16 -8 -21 -11 -3 -22 -14 -24 -23 -4 -14 -6 -13 -12 5 -4 13
-11 20 -16 17 -5 -3 -7 -9 -4 -14 3 -5 1 -11 -5 -15 -9 -6 -14 7 -11 28 0 4
-7 7 -16 7 -15 0 -16 2 -3 10 11 7 6 10 -20 10 -26 0 -31 -3 -20 -10 17 -11
10 -13 -14 -4 -37 14 -11 24 63 24 56 0 82 -4 90 -14z m-199 -166 c0 -27 -3
-30 -32 -30 l-32 0 29 30 c16 17 30 30 32 30 2 0 3 -13 3 -30z m120 0 c0 -5
-2 -10 -4 -10 -3 0 -8 5 -11 10 -3 6 -1 10 4 10 6 0 11 -4 11 -10z m-95 -100
c4 -6 -5 -10 -19 -10 -14 0 -26 5 -26 10 0 6 9 10 19 10 11 0 23 -4 26 -10z
m-11 -100 c4 -5 -8 -8 -28 -8 -24 0 -36 5 -36 14 0 11 7 13 28 8 15 -4 31 -10
36 -14z m11 -100 c3 -5 1 -10 -4 -10 -6 0 -11 5 -11 10 0 6 2 10 4 10 3 0 8
-4 11 -10z m595 -119 c0 -17 -4 -33 -10 -36 -5 -3 -10 -21 -10 -38 -1 -34 -28
-143 -29 -116 -1 9 3 40 9 70 5 30 12 75 15 102 7 51 25 65 25 18z m-552 -30
c35 -45 41 -81 7 -47 -20 20 -26 20 -19 1 8 -20 -9 -19 -34 3 -29 24 -20 76
12 66 11 -4 27 -14 34 -23z m-209 -1 c18 -5 45 -17 60 -27 14 -9 32 -16 38
-15 7 2 39 -23 72 -55 61 -60 137 -113 164 -113 8 0 20 7 28 16 14 17 17 16
97 -15 l53 -20 -6 32 c-4 18 -11 36 -16 42 -5 5 -9 20 -9 33 0 18 4 23 16 18
9 -3 20 -6 25 -6 6 0 8 -4 5 -9 -4 -5 0 -11 6 -14 10 -3 10 -9 0 -27 -8 -12
-9 -19 -4 -16 5 3 17 -3 27 -14 10 -11 24 -20 31 -20 11 0 24 -26 44 -92 7
-22 5 -26 -7 -21 -12 5 -14 -2 -8 -43 4 -27 10 -60 15 -74 18 -54 21 -80 8
-80 -10 0 -10 -2 -1 -8 6 -4 12 -26 11 -50 0 -25 -4 -39 -10 -36 -6 4 -8 -2
-3 -15 4 -12 2 -21 -4 -21 -6 0 -10 -3 -9 -7 3 -16 -15 -167 -23 -192 -8 -23
-9 -23 -4 6 2 18 0 35 -5 38 -6 3 -10 11 -10 16 0 6 5 7 10 4 6 -4 10 5 10 19
0 14 -4 26 -9 26 -8 0 3 92 13 109 3 5 -4 37 -15 72 -12 35 -23 80 -25 99 -5
53 -12 91 -22 130 l-10 35 -1 -42 c-1 -23 -8 -48 -16 -57 -8 -8 -15 -19 -15
-25 0 -11 -48 -51 -61 -51 -4 0 -9 17 -11 38 -3 33 -6 37 -28 34 -14 -2 -36
-3 -50 -3 -29 0 -132 -49 -172 -80 -23 -19 -32 -20 -65 -12 -30 8 -46 6 -78
-8 -22 -10 -52 -19 -67 -19 -16 0 -42 -14 -68 -38 l-42 -38 40 -39 c50 -51 92
-113 92 -136 0 -11 4 -19 8 -19 7 0 19 -29 38 -97 2 -9 28 -13 81 -14 63 -1
71 -3 40 -9 -20 -4 -40 -10 -44 -13 -3 -4 -12 -2 -20 5 -7 6 -16 8 -20 4 -3
-3 0 -6 8 -7 8 -1 3 -5 -11 -9 -25 -8 -24 -8 5 -9 40 -2 71 -20 35 -21 l-25
-1 25 -12 c23 -10 19 -12 -40 -17 l-65 -5 60 -8 c86 -11 99 -23 35 -32 -60 -8
-52 -20 20 -31 71 -10 70 -18 -5 -30 -62 -10 -65 -11 -27 -13 30 -1 42 -5 39
-13 -3 -9 -25 -12 -68 -11 l-64 1 83 -15 c92 -18 110 -33 30 -25 -49 5 -51 4
-36 -12 10 -10 35 -17 65 -17 40 -2 34 -4 -34 -12 -64 -8 -86 -7 -98 3 -9 7
-13 15 -11 18 3 2 0 14 -6 26 -7 11 -13 24 -14 29 -1 4 -3 10 -4 15 -1 4 -2
11 -1 16 1 5 -2 12 -7 15 -5 3 -12 23 -15 44 -6 36 -4 38 24 44 16 3 29 10 29
14 0 5 -12 6 -27 3 -26 -7 -26 -6 -10 16 9 13 28 31 43 40 26 18 26 18 4 25
-12 4 -36 30 -54 58 -43 67 -126 232 -126 251 0 7 -7 29 -15 47 l-16 34 7 -33
c3 -19 1 -39 -6 -47 -8 -10 -8 -15 0 -20 7 -5 -4 -14 -27 -25 -24 -10 -48 -32
-61 -53 -16 -28 -28 -36 -54 -39 -32 -3 -33 -4 -30 -42 2 -23 0 -36 -6 -32 -5
3 -13 -10 -16 -29 -7 -36 -36 -50 -36 -17 0 14 -2 15 -10 2 -5 -8 -10 -37 -10
-64 0 -27 -3 -47 -6 -44 -3 4 -5 106 -5 228 0 159 -3 236 -14 275 -15 59 -11
171 7 193 6 7 13 69 16 137 5 134 5 133 60 119 21 -6 22 -12 22 -89 0 -101 8
-111 82 -101 35 5 53 3 58 -5 4 -6 13 17 19 52 13 77 33 107 92 136 50 25 69
27 118 13z m-1684 -26 c14 -9 32 -14 40 -10 12 4 15 -3 15 -34 0 -25 -5 -40
-12 -41 -7 0 -34 -2 -59 -5 l-46 -4 -12 40 c-9 32 -9 43 1 55 17 19 43 19 73
-1z m2296 -37 c-10 -9 -11 -8 -5 6 3 10 9 15 12 12 3 -3 0 -11 -7 -18z m89
-100 c0 -1 4 -16 9 -33 7 -24 6 -31 -5 -31 -8 0 -14 8 -14 18 0 9 -3 24 -6 33
-3 9 -1 16 5 16 6 0 11 -1 11 -3z m-4576 -209 c8 -30 7 -109 -1 -231 -7 -112
-17 -114 -45 -10 -15 57 -16 80 -7 143 10 73 25 120 40 120 3 0 9 -10 13 -22z
m-116 -136 c2 -7 -6 -12 -17 -12 -21 0 -27 11 -14 24 9 9 26 2 31 -12z m3803
-155 c-1 -4 -1 -19 -1 -34 -1 -26 -2 -27 -15 -9 -14 19 -35 14 -35 -8 0 -8 -7
-19 -15 -26 -29 -24 -17 17 16 55 28 32 52 42 50 22z m766 -194 c-3 -10 -5 -4
-5 12 0 17 2 24 5 18 2 -7 2 -21 0 -30z m-825 -25 c-7 -7 -12 -8 -12 -2 0 14
12 26 19 19 2 -3 -1 -11 -7 -17z m108 12 c0 -5 -5 -10 -11 -10 -5 0 -7 5 -4
10 3 6 8 10 11 10 2 0 4 -4 4 -10z m-106 -195 c-3 -7 -14 -11 -25 -8 -27 7
-24 18 5 19 16 1 23 -3 20 -11z m-217 -57 c-3 -8 -6 -5 -6 6 -1 11 2 17 5 13
3 -3 4 -12 1 -19z m210 -14 c-2 -2 -12 -1 -22 3 -18 6 -18 7 1 13 17 7 33 -5
21 -16z m366 -161 c-7 -2 -21 -2 -30 0 -10 3 -4 5 12 5 17 0 24 -2 18 -5z m34
-39 c-3 -3 -12 -4 -19 -1 -8 3 -5 6 6 6 11 1 17 -2 13 -5z m-1098 -71 c0 -11
-3 -13 -6 -5 -5 13 -89 17 -130 6 -18 -5 -21 -11 -16 -40 l6 -34 -57 3 -56 2
0 43 0 42 130 0 c117 0 130 -2 129 -17z m911 -9 c0 -2 -9 -4 -21 -4 -11 0 -18
4 -14 10 5 8 35 3 35 -6z m17 -35 c20 -7 24 -12 14 -19 -11 -6 -10 -9 5 -13
10 -2 -10 -5 -46 -5 -39 0 -57 2 -46 7 14 5 16 10 8 15 -7 4 -10 12 -7 17 8
12 37 11 72 -2z m690 -96 c-3 -10 -5 -4 -5 12 0 17 2 24 5 18 2 -7 2 -21 0
-30z m-1870 -70 c-2 -16 -4 -3 -4 27 0 30 2 43 4 28 2 -16 2 -40 0 -55z m26
-40 c-7 -2 -19 -2 -25 0 -7 3 -2 5 12 5 14 0 19 -2 13 -5z m1858 -304 c-7 -16
-10 -18 -10 -7 -1 9 -10 20 -21 23 -31 10 -28 74 5 105 21 19 25 34 27 84 1
34 4 7 5 -60 2 -66 -1 -132 -6 -145z m-115 71 c41 0 34 -17 -9 -23 -23 -3 -43
-5 -44 -3 -1 1 0 12 4 25 4 16 9 19 16 12 6 -6 21 -11 33 -11z m336 -256 l-4
-191 -40 -12 c-22 -7 -42 -10 -44 -8 -3 2 -18 69 -34 148 -30 147 -39 246 -20
234 11 -7 109 22 125 36 18 17 21 -16 17 -207z m-268 144 c3 -13 6 -38 6 -57
0 -18 5 -62 12 -97 10 -56 7 -87 -7 -73 -2 3 -9 47 -15 99 -6 52 -12 107 -15
123 -5 32 10 37 19 5z m43 -95 c-2 -21 -4 -6 -4 32 0 39 2 55 4 38 2 -18 2
-50 0 -70z m213 -298 c0 -9 -9 -15 -22 -15 -22 1 -23 1 -4 15 25 19 26 19 26
0z m-953 -92 c9 -7 13 -16 8 -20 -4 -5 -10 -2 -12 5 -3 6 -13 12 -24 12 -15 0
-19 7 -19 38 l0 37 15 -30 c9 -16 23 -36 32 -42z m-7 57 c0 -5 -4 -10 -10 -10
-5 0 -10 5 -10 10 0 6 5 10 10 10 6 0 10 -4 10 -10z m948 -7 c-10 -2 -26 -2
-35 0 -10 3 -2 5 17 5 19 0 27 -2 18 -5z m-731 -33 c1 -11 -2 -20 -8 -20 -5 0
-9 9 -9 20 0 11 4 20 8 20 4 0 8 -9 9 -20z m336 -15 c18 -2 46 -6 62 -8 17 -2
0 -5 -37 -6 l-68 -1 1 28 c1 16 3 20 6 10 2 -10 18 -19 36 -23z m325 -30 c-3
-3 -9 2 -12 12 -6 14 -5 15 5 6 7 -7 10 -15 7 -18z m25 -87 c-9 -15 -23 -8
-23 12 0 17 2 19 14 8 8 -7 12 -16 9 -20z m-763 -8 c0 -5 -5 -10 -11 -10 -5 0
-7 5 -4 10 3 6 8 10 11 10 2 0 4 -4 4 -10z"/>
<path d="M427 8443 c-4 -3 -7 -15 -7 -25 0 -28 34 -19 38 10 3 21 -16 31 -31
15z"/>
<path d="M726 8433 c-11 -26 13 -42 29 -19 8 10 12 23 9 27 -9 15 -31 10 -38
-8z"/>
<path d="M1140 8415 c-28 -70 -22 -91 10 -31 30 60 41 66 113 68 51 1 6 18
-49 18 l-52 0 -22 -55z"/>
<path d="M2228 8463 c7 -3 16 -2 19 1 4 3 -2 6 -13 5 -11 0 -14 -3 -6 -6z"/>
<path d="M1107 8314 c-4 -4 -7 -17 -7 -28 1 -19 1 -20 11 -3 11 19 8 43 -4 31z"/>
<path d="M1102 8240 c0 -14 2 -19 5 -12 2 6 2 18 0 25 -3 6 -5 1 -5 -13z"/>
<path d="M1320 7870 c-9 -6 -10 -10 -3 -10 6 0 15 5 18 10 8 12 4 12 -15 0z"/>
<path d="M5150 7670 c0 -5 5 -10 10 -10 6 0 10 5 10 10 0 6 -4 10 -10 10 -5 0
-10 -4 -10 -10z"/>
<path d="M1109 7543 c-1 -5 -1 -11 0 -15 0 -4 -11 -3 -25 2 -34 13 -41 13 -26
-2 7 -7 34 -13 59 -13 43 -1 56 -9 69 -43 1 -1 8 0 16 3 21 8 12 41 -15 60
-22 16 -76 21 -78 8z"/>
<path d="M910 7413 c0 -15 32 -40 60 -46 14 -3 57 -15 95 -26 39 -11 94 -21
123 -21 28 0 52 -4 52 -9 0 -6 -11 -23 -24 -38 -21 -24 -31 -28 -74 -26 -58 2
-127 37 -167 85 -14 16 -25 24 -25 18 0 -6 25 -36 55 -66 54 -52 58 -54 111
-54 30 0 67 6 82 14 35 18 88 116 69 128 -17 11 -45 10 -67 -2 -12 -6 -21 -7
-25 0 -3 5 -19 7 -36 3 -17 -3 -40 -1 -52 4 -12 6 -50 16 -85 22 -35 7 -69 14
-77 18 -8 3 -15 1 -15 -4z"/>
<path d="M2605 7100 c3 -5 8 -10 11 -10 2 0 4 5 4 10 0 6 -5 10 -11 10 -5 0
-7 -4 -4 -10z"/>
<path d="M1007 6864 c-12 -12 4 -24 31 -24 26 1 26 1 8 15 -22 17 -30 18 -39
9z"/>
<path d="M520 6757 c-41 -12 -68 -22 -60 -24 8 -2 53 8 100 21 47 13 74 24 60
24 -14 0 -59 -9 -100 -21z"/>
<path d="M1080 6770 c0 -5 -7 -10 -17 -10 -21 0 -9 -13 16 -17 15 -2 18 2 14
17 -6 21 -13 27 -13 10z"/>
<path d="M5103 6710 c0 -36 2 -50 4 -32 2 17 2 47 0 65 -2 17 -4 3 -4 -33z"/>
<path d="M388 6713 c7 -3 16 -2 19 1 4 3 -2 6 -13 5 -11 0 -14 -3 -6 -6z"/>
<path d="M1807 6563 c-9 -2 -15 -8 -12 -13 3 -4 -5 -6 -16 -3 -14 4 -25 0 -31
-12 -9 -14 -12 -15 -19 -4 -8 12 -12 11 -23 -3 -7 -10 -22 -18 -34 -18 -11 0
-22 -7 -26 -15 -3 -8 -11 -15 -17 -15 -15 0 -59 -42 -59 -57 0 -7 -5 -13 -12
-13 -6 0 -9 -3 -5 -6 3 -3 -6 -28 -19 -54 -21 -42 -33 -96 -37 -162 -2 -25 -6
-22 -18 8 -17 46 -19 20 -3 -42 18 -69 12 -110 -14 -99 -9 4 -27 9 -39 10 -12
2 -35 6 -52 10 -19 4 -31 3 -31 -4 0 -7 -8 -7 -22 -2 -13 5 -41 7 -63 6 -22
-2 -48 1 -57 6 -12 7 -26 5 -40 -3 -13 -7 -50 -13 -83 -14 -45 -2 -63 -7 -75
-21 -16 -20 -45 -20 -34 0 4 7 -3 2 -15 -11 -12 -12 -26 -20 -31 -17 -5 3 -4
-8 1 -25 9 -25 14 -28 25 -19 10 8 18 8 27 1 7 -6 23 -9 35 -5 13 3 22 1 22
-6 0 -9 5 -9 20 -1 11 6 20 8 20 4 0 -3 6 -1 13 5 8 6 17 8 20 4 4 -3 23 -6
44 -5 20 1 42 -3 50 -9 9 -8 17 -8 28 1 8 6 19 9 24 6 6 -4 26 -7 46 -8 19 -1
35 -6 35 -11 0 -6 5 -6 13 1 6 5 23 8 36 6 17 -3 22 0 18 10 -4 9 1 16 11 18
30 6 62 -4 62 -19 0 -13 3 -13 15 -3 10 9 15 9 15 1 0 -6 10 -11 21 -11 45 0
227 -188 293 -302 16 -27 30 -48 32 -48 9 0 -31 68 -85 145 -116 163 -169 265
-176 337 -2 24 -7 60 -10 81 -5 26 -3 37 5 37 9 0 10 3 1 13 -6 8 -8 17 -4 21
4 3 8 16 10 27 4 30 23 60 32 55 5 -3 17 4 27 15 10 11 24 17 31 15 7 -3 13
-1 13 4 0 6 14 10 30 10 19 0 30 5 30 14 0 8 5 18 12 22 6 4 8 3 4 -4 -11 -19
28 -9 49 11 11 11 14 16 6 12 -9 -5 -12 -4 -7 3 4 7 14 12 22 12 8 0 12 -4 9
-10 -14 -23 15 -8 48 25 19 19 37 31 41 28 3 -3 6 1 6 10 0 8 7 22 15 31 14
14 13 17 -12 29 -31 16 -109 27 -136 20z"/>
<path d="M1270 6110 c0 -5 5 -10 10 -10 6 0 10 5 10 10 0 6 -4 10 -10 10 -5 0
-10 -4 -10 -10z"/>
<path d="M5274 5528 c1 -33 -1 -55 -7 -51 -5 3 -5 -2 0 -13 5 -11 7 -30 4 -44
-10 -55 -5 -340 7 -352 19 -19 14 -55 -8 -61 -20 -5 -28 -27 -10 -27 6 0 10
-9 10 -20 0 -11 5 -20 12 -20 6 0 1 -8 -10 -19 -21 -18 -41 -98 -22 -86 16 10
38 -19 43 -56 2 -19 3 135 2 341 -1 232 -6 392 -13 420 l-11 45 3 -57z"/>
<path d="M672 4933 c335 -2 881 -2 1215 0 335 1 61 2 -607 2 -668 0 -942 -1
-608 -2z"/>
<path d="M3752 4866 c1 -10 8 -17 13 -17 15 1 12 24 -3 29 -9 3 -13 -2 -10
-12z"/>
<path d="M5260 4780 c0 -16 5 -30 10 -30 6 0 10 14 10 30 0 17 -4 30 -10 30
-5 0 -10 -13 -10 -30z"/>
<path d="M1185 4702 c-31 -3 -95 -29 -95 -39 0 -3 8 -2 18 2 9 3 0 -10 -21
-29 -22 -20 -42 -34 -47 -33 -4 1 -22 -24 -39 -57 -34 -63 -39 -81 -16 -50 13
17 14 16 4 -13 -6 -18 -14 -31 -18 -29 -4 3 -11 -15 -17 -39 -6 -25 -6 -41 -1
-38 5 3 7 -3 4 -13 -3 -11 -17 -77 -32 -149 -14 -71 -30 -134 -36 -141 -6 -7
-4 -21 6 -40 8 -16 15 -38 15 -48 0 -11 10 -30 22 -43 20 -21 22 -35 24 -145
1 -113 3 -123 24 -140 22 -18 21 -56 -1 -42 -6 3 -14 2 -18 -4 -4 -7 -22 -7
-56 -1 -59 11 -130 4 -165 -17 -16 -10 -17 -13 -5 -8 45 16 85 17 85 1 0 -25
-70 -286 -95 -359 -13 -37 -27 -91 -31 -120 -4 -29 -11 -62 -17 -72 -9 -17
-11 -16 -25 15 -8 19 -18 50 -23 69 -6 24 -7 7 -4 -55 4 -98 -1 -119 -27 -121
-10 -1 -15 2 -12 7 3 5 0 9 -5 9 -6 0 -11 -7 -11 -15 0 -8 5 -15 10 -15 6 0
10 -9 10 -20 0 -11 -5 -20 -10 -20 -10 0 -10 -20 7 -202 4 -53 3 -58 -15 -58
-17 0 -21 -9 -27 -62 -4 -34 -11 -69 -16 -78 -5 -8 -15 -39 -23 -68 -15 -52
-35 -82 -55 -82 -6 0 -11 -13 -11 -29 0 -32 -87 -152 -105 -145 -5 3 -18 18
-27 34 -14 25 -22 29 -43 24 -26 -6 -35 11 -17 32 11 12 52 114 47 114 -3 0
-21 -32 -41 -71 -31 -63 -38 -70 -57 -64 -12 4 -61 9 -109 12 l-88 5 0 -91 c0
-90 1 -92 22 -85 l21 6 -21 -36 c-19 -32 -22 -52 -22 -142 l0 -105 68 2 c230
5 506 -2 520 -14 13 -9 14 -9 8 1 -5 8 1 12 23 12 16 0 31 -4 33 -9 2 -4 302
-11 668 -15 365 -4 667 -9 670 -11 3 -1 113 -6 245 -9 132 -4 268 -9 303 -12
65 -5 68 -3 64 46 -1 8 -1 395 -2 859 l0 844 -21 -19 c-17 -15 -22 -16 -29 -4
-7 12 -11 9 -19 -10 -7 -18 -10 -20 -10 -8 -1 17 -2 17 -21 1 -23 -20 -26 -34
-7 -31 6 2 12 -4 12 -12 0 -8 -7 -13 -15 -11 -34 8 -58 8 -71 0 -11 -7 -11 -9
3 -9 9 0 19 -6 21 -12 4 -10 6 -10 6 0 1 6 6 12 11 12 19 0 10 -17 -15 -28
-21 -10 -25 -9 -25 3 0 8 -4 15 -10 15 -5 0 -7 -7 -4 -15 7 -17 -14 -48 -26
-40 -5 3 -6 -4 -3 -16 5 -16 1 -20 -13 -19 -10 1 -26 2 -34 1 -13 -1 -13 -3 0
-10 8 -6 17 -8 21 -5 4 2 7 -5 6 -16 -1 -11 -9 -23 -19 -26 -10 -3 -18 -10
-18 -15 0 -6 4 -8 8 -5 5 3 14 -10 20 -29 6 -20 6 -35 1 -35 -5 0 -9 8 -10 18
0 14 -2 14 -8 -3 -5 -11 -4 -22 0 -23 5 -2 7 -8 3 -13 -3 -5 1 -9 9 -9 17 0
60 -57 52 -70 -3 -5 -1 -11 4 -14 5 -3 7 -15 4 -26 -3 -12 0 -20 7 -20 9 0 7
-7 -5 -20 -13 -14 -21 -17 -26 -9 -5 8 -8 8 -13 0 -4 -6 -3 -11 3 -11 6 0 8
-6 5 -14 -3 -8 -1 -17 5 -21 7 -3 8 0 5 9 -3 9 -2 16 4 16 6 0 9 -8 7 -17 -2
-10 -4 -21 -4 -25 -1 -5 -10 -8 -21 -8 -20 0 -20 -1 -3 -26 17 -26 17 -27 -5
-20 -29 10 -29 -12 1 -24 13 -5 16 -9 7 -10 -12 0 -13 -2 -1 -9 7 -5 15 -19
16 -32 2 -13 5 -31 6 -39 3 -9 -5 -16 -18 -18 -22 -3 -22 -4 -5 -30 16 -25 16
-26 -2 -19 -14 5 -17 4 -12 -8 3 -8 1 -15 -4 -15 -18 0 -10 -19 11 -25 19 -7
20 -7 2 -21 -17 -13 -17 -13 1 -14 18 0 18 -1 3 -18 -10 -10 -17 -24 -17 -30
0 -6 -12 -14 -27 -18 -44 -9 -50 -12 -25 -13 14 -1 20 -5 17 -12 -4 -6 -13 -8
-21 -5 -8 3 -11 0 -7 -10 7 -18 12 -18 32 4 9 11 26 24 39 31 30 16 30 -2 0
-38 -17 -19 -31 -25 -50 -23 -16 2 -28 -1 -28 -7 0 -6 7 -11 15 -11 8 0 15 -7
15 -15 0 -9 -6 -12 -16 -8 -14 5 -15 0 -10 -33 3 -21 2 -46 -4 -54 -9 -15 -11
-13 -14 13 -1 6 -9 11 -19 9 -24 -4 -21 19 4 25 17 5 20 11 15 36 -8 38 -13
44 -27 30 -8 -8 -8 -13 0 -17 7 -5 6 -15 -5 -30 -9 -15 -12 -34 -8 -50 5 -20
2 -26 -10 -26 -9 0 -16 -4 -16 -10 0 -5 9 -10 20 -10 11 0 20 5 20 10 0 6 5
10 10 10 18 0 10 -18 -10 -25 -11 -4 -30 -24 -43 -46 -12 -21 -26 -39 -30 -39
-5 0 -5 6 -1 13 5 8 2 7 -10 -2 -9 -8 -15 -20 -12 -28 7 -16 -1 -17 -18 -1
-11 11 -11 14 0 23 9 7 11 15 4 25 -8 13 -10 12 -10 -3 0 -11 -5 -15 -11 -11
-8 4 -9 -3 -4 -25 4 -20 3 -31 -4 -31 -7 0 -12 -26 -13 -62 -1 -46 -3 -35 -7
42 -6 97 -4 106 14 120 11 8 34 30 51 48 22 23 33 30 37 20 3 -7 5 -4 4 7 0
11 18 59 41 107 65 133 83 218 81 372 -2 91 1 131 9 134 16 5 15 77 -1 94 -10
10 -11 55 -6 208 4 120 3 214 -4 245 -5 28 -9 127 -8 222 0 94 -3 183 -9 197
-5 15 -14 68 -20 119 -6 50 -15 112 -19 137 -5 25 -15 78 -21 117 -7 40 -15
75 -20 78 -15 9 -39 -7 -42 -28 -2 -12 -2 38 1 111 4 161 -4 187 -61 203 -22
6 -57 8 -77 5 -20 -3 -85 -5 -144 -6 -101 0 -109 -2 -132 -25 -14 -13 -24 -34
-24 -47 l2 -23 4 23 c9 45 38 52 213 54 209 2 200 10 200 -176 0 -72 -3 -183
-6 -247 l-7 -115 -24 20 c-14 12 -41 39 -61 61 -125 135 -140 148 -156 142
-14 -6 -15 -10 -3 -39 7 -18 27 -42 45 -53 17 -11 31 -26 32 -34 0 -9 8 -12
25 -9 32 7 41 -5 60 -77 9 -36 25 -69 40 -83 14 -12 28 -35 32 -50 3 -15 12
-32 19 -39 6 -7 21 -27 33 -46 18 -29 19 -37 8 -74 -10 -34 -14 -38 -25 -27
-7 8 -22 14 -32 14 -20 0 -26 -22 -22 -73 1 -10 -2 -16 -7 -13 -12 8 -71 -14
-71 -25 0 -5 5 -9 10 -9 6 0 10 5 10 12 0 20 11 2 16 -26 6 -35 49 -148 79
-206 33 -65 38 -98 23 -147 -14 -47 -21 -51 -58 -27 -25 15 -25 15 -5 -3 11
-10 21 -29 22 -43 2 -26 -14 -53 -27 -45 -5 3 -6 -4 -3 -15 5 -17 8 -18 22 -8
14 12 15 11 2 -5 -12 -15 -11 -23 4 -56 16 -36 16 -41 1 -62 -20 -29 -21 -98
-1 -126 13 -19 13 -21 -3 -17 -13 4 -17 -2 -19 -26 -1 -16 2 -30 7 -30 6 0 10
5 10 11 0 5 5 7 10 4 6 -3 10 -2 10 4 0 5 -6 12 -12 14 -7 3 1 6 19 6 26 1 31
4 26 19 -5 14 -3 13 10 -3 18 -22 21 -36 10 -34 -25 4 -36 -2 -26 -12 6 -6 9
-18 6 -25 -9 -25 23 -15 37 11 13 25 30 34 30 16 0 -18 -62 -63 -73 -52 -6 6
-15 5 -24 -5 -20 -20 -32 -17 -26 6 6 23 -3 26 -23 6 -8 -8 -11 -21 -8 -30 6
-16 -34 -153 -47 -162 -9 -5 -12 6 -29 86 -18 85 0 -117 21 -240 11 -63 24
-178 30 -255 12 -179 27 -300 44 -366 8 -29 10 -48 6 -43 -5 5 -18 48 -29 95
-11 48 -24 94 -29 103 -20 36 -139 175 -164 192 -28 19 -39 65 -39 169 l0 50
17 -34 c24 -47 78 -100 127 -121 65 -30 64 -36 24 179 -15 80 -24 109 -29 95
-4 -10 -8 -28 -8 -40 -1 -23 -68 -87 -85 -81 -26 9 -34 48 -20 100 17 65 17
65 -1 41 -14 -18 -14 -17 -11 16 3 20 14 63 24 95 11 33 23 88 25 123 4 46 10
67 23 78 18 14 18 15 -4 9 -24 -7 -24 -7 -5 12 14 14 18 29 15 56 -2 20 -8 35
-13 32 -4 -3 -6 13 -3 36 4 30 2 39 -7 33 -9 -5 -10 -2 -6 9 5 12 11 374 8
469 -1 9 -10 19 -21 23 -16 5 -17 10 -8 30 6 13 18 26 27 28 10 3 8 5 -6 6
-31 1 -29 19 2 27 18 4 25 13 25 30 0 17 -4 22 -15 18 -11 -5 -13 -2 -9 11 6
14 3 16 -15 10 -16 -5 -26 -1 -36 12 -13 17 -14 16 -8 -6 4 -17 3 -22 -5 -17
-7 4 -12 16 -12 26 0 13 -14 27 -39 40 -38 19 -61 40 -44 40 4 0 27 -5 50 -10
26 -6 57 -6 80 -1 36 8 34 9 -27 10 -36 1 -70 5 -76 9 -26 17 -34 56 -34 161
0 61 -4 113 -10 116 -5 3 -9 17 -8 30 2 18 5 21 15 13 7 -6 11 -14 8 -18 -3
-4 1 -13 8 -19 10 -8 19 -7 33 4 18 14 18 16 -12 43 -26 25 -32 39 -39 98 -4
38 -8 82 -7 97 1 15 -3 39 -8 52 -6 17 -6 25 1 25 7 0 8 11 4 29 -4 19 -42 66
-105 130 -120 121 -150 134 -310 135 -58 1 -118 0 -135 -2z m232 -324 c12 -11
24 -32 28 -46 3 -15 8 -34 11 -43 3 -12 -10 -26 -45 -48 -33 -20 -53 -40 -57
-57 -7 -27 0 -149 10 -174 3 -8 -3 -26 -13 -40 -16 -20 -22 -22 -35 -11 -16
13 -36 7 -36 -10 0 -6 9 -8 19 -4 21 6 30 -3 37 -39 4 -22 -1 -25 -38 -32 -24
-4 -51 -7 -60 -5 -26 3 -23 -3 26 -54 39 -40 49 -45 88 -45 25 0 48 -3 51 -6
12 -13 -14 -44 -50 -59 -46 -20 -73 -11 -145 45 -60 48 -94 91 -104 135 -7 29
-7 30 13 13 11 -10 28 -18 38 -18 15 0 11 8 -19 39 -36 37 -38 42 -31 82 12
84 20 95 66 91 77 -8 117 39 64 74 -21 14 -41 19 -97 23 -5 1 -8 6 -8 11 0 17
32 11 85 -15 29 -14 53 -21 58 -16 15 15 -2 30 -69 61 l-65 29 16 38 c21 50
84 112 120 119 16 3 31 7 33 9 7 7 87 -28 109 -47z m798 -277 c4 -56 3 -81 -4
-77 -23 14 -39 122 -25 161 12 31 23 0 29 -84z m-760 72 c-11 -3 -27 -10 -35
-17 -13 -10 -13 -9 -1 7 7 9 23 16 35 16 20 -1 20 -2 1 -6z m-255 -12 c0 -6
-10 -8 -21 -6 -33 6 -36 15 -6 15 15 0 27 -4 27 -9z m248 -33 c-2 -6 15 -21
37 -32 22 -12 42 -22 44 -24 11 -6 -34 -115 -53 -127 -26 -19 -39 -9 -33 24 3
16 -2 38 -13 56 -25 40 -32 84 -17 101 15 17 38 18 35 2z m762 -199 c0 -6 -4
-7 -10 -4 -5 3 -10 11 -10 16 0 6 5 7 10 4 6 -3 10 -11 10 -16z m-837 -18 c3
-12 -1 -22 -9 -25 -10 -4 -14 2 -14 19 0 30 16 33 23 6z m2 -88 c-23 -16 -60
-17 -88 0 -20 11 -17 12 33 17 65 6 80 2 55 -17z m-375 -138 c0 -8 -4 -15 -10
-15 -5 0 -10 7 -10 15 0 8 5 15 10 15 6 0 10 -7 10 -15z m265 -67 c27 -32 28
-39 9 -123 -3 -13 8 -33 30 -58 34 -37 35 -37 50 -16 10 16 12 28 5 46 -12 32
-12 56 1 48 6 -3 10 -2 10 3 0 5 9 12 20 15 18 5 20 2 15 -26 -5 -28 -1 -37
40 -76 34 -31 50 -40 58 -32 17 17 64 13 113 -9 35 -16 44 -25 39 -39 -3 -10
1 -24 10 -31 23 -19 19 -43 -5 -35 -11 3 -20 2 -20 -3 0 -5 -15 -15 -32 -22
-18 -6 -45 -18 -59 -26 -14 -7 -28 -11 -31 -9 -3 3 -13 -4 -23 -15 -10 -11
-25 -20 -33 -20 -17 0 -99 -59 -106 -76 -3 -8 9 -9 42 -2 29 5 50 4 56 -2 5
-5 33 -10 61 -10 63 0 70 -6 79 -57 6 -41 4 -44 -48 -101 -30 -32 -67 -65 -83
-72 -15 -8 -33 -22 -40 -31 -7 -9 -36 -31 -65 -50 -29 -18 -62 -41 -74 -51
-45 -40 -64 -2 -64 126 0 55 6 83 25 125 14 30 22 57 16 60 -5 3 -14 25 -20
49 l-12 43 -87 -7 c-55 -5 -92 -13 -101 -22 -10 -10 -16 -11 -19 -3 -5 16 -19
14 -19 -4 0 -8 6 -15 14 -15 7 0 18 -8 24 -19 7 -11 19 -16 31 -13 11 3 18 -1
18 -10 0 -8 13 -33 29 -55 37 -51 50 -98 47 -168 -4 -81 -24 -99 -102 -92 -78
6 -136 32 -201 91 -61 55 -77 95 -71 177 2 33 2 55 -2 50 -12 -20 -31 6 -24
32 7 32 12 33 30 10 12 -15 13 -15 8 -2 -3 9 20 93 50 185 30 93 62 195 71
226 9 32 20 60 24 62 4 3 40 -7 81 -20 150 -50 169 -56 187 -52 14 3 11 8 -15
23 -37 22 -39 48 -3 53 20 3 23 8 19 43 -4 48 10 51 47 7z m645 -96 c0 -4 -9
-8 -20 -9 -11 -1 -18 2 -15 8 7 11 35 12 35 1z m510 -412 c0 -5 -2 -10 -4 -10
-3 0 -8 5 -11 10 -3 6 -1 10 4 10 6 0 11 -4 11 -10z m-195 -190 c-27 -12 -43
-12 -25 0 8 5 22 9 30 9 10 0 8 -3 -5 -9z m-1559 -366 c6 -48 -10 -26 -20 26
-4 24 -3 31 4 24 6 -6 13 -28 16 -50z m1719 -14 c3 -6 -1 -7 -9 -4 -18 7 -21
14 -7 14 6 0 13 -4 16 -10z m-1619 -55 c3 -18 4 -40 1 -47 -2 -7 9 -29 24 -49
37 -47 74 -194 65 -259 -7 -54 -34 -138 -46 -145 -5 -3 -3 10 5 29 19 45 19
45 -9 42 -17 -2 -23 1 -19 10 7 18 -23 19 -30 2 -4 -9 -8 -10 -14 -2 -8 11
-56 39 -85 50 -10 3 -18 10 -18 15 0 5 -7 9 -15 9 -8 0 -15 6 -15 14 0 20 -54
38 -70 23 -7 -7 6 17 29 52 23 35 46 80 51 100 5 20 19 50 30 66 l20 30 0 -50
c0 -53 12 -86 24 -66 4 6 2 11 -3 11 -6 0 -11 9 -11 21 0 15 5 19 15 15 10 -4
15 1 15 15 0 11 -4 17 -10 14 -7 -4 -7 3 0 20 7 17 7 24 0 20 -19 -12 -15 35
7 82 13 27 18 31 34 23 10 -6 21 -26 25 -45z m1059 -54 c2 -45 0 -81 -4 -81
-12 0 -23 113 -15 145 10 41 16 23 19 -64z m-20 -89 c4 -34 12 -65 17 -68 6
-4 8 1 4 14 -4 11 -2 23 4 27 6 4 10 -6 10 -24 0 -16 3 -38 6 -48 4 -11 -6 -6
-25 15 -26 27 -31 41 -31 80 0 26 -3 58 -6 72 -4 18 -3 21 4 10 5 -8 13 -43
17 -78z m545 68 c0 -12 -7 -20 -17 -20 -15 0 -16 2 -3 10 10 6 11 10 3 10 -7
0 -13 5 -13 10 0 6 7 10 15 10 8 0 15 -9 15 -20z m-700 -590 c0 -5 -5 -10 -11
-10 -5 0 -7 5 -4 10 3 6 8 10 11 10 2 0 4 -4 4 -10z m155 0 c3 -6 -4 -10 -17
-10 -18 0 -20 2 -8 10 19 12 18 12 25 0z m-227 -7 c-10 -2 -26 -2 -35 0 -10 3
-2 5 17 5 19 0 27 -2 18 -5z m135 0 c-7 -2 -19 -2 -25 0 -7 3 -2 5 12 5 14 0
19 -2 13 -5z m-83 -23 c13 -9 13 -10 0 -10 -8 0 -22 5 -30 10 -13 9 -13 10 0
10 8 0 22 -5 30 -10z"/>
<path d="M1407 3279 c7 -7 15 -10 18 -7 3 3 -2 9 -12 12 -14 6 -15 5 -6 -5z"/>
<path d="M1570 3270 c-12 -8 -10 -10 8 -10 13 0 20 4 17 10 -7 12 -6 12 -25 0z"/>
<path d="M711 2304 c0 -11 3 -14 6 -6 3 7 2 16 -1 19 -3 4 -6 -2 -5 -13z"/>
<path d="M750 2300 c0 -5 7 -7 15 -4 8 4 15 8 15 10 0 2 -7 4 -15 4 -8 0 -15
-4 -15 -10z"/>
<path d="M676 2273 c-6 -14 -5 -15 5 -6 7 7 10 15 7 18 -3 3 -9 -2 -12 -12z"/>
<path d="M706 2255 c-3 -8 -1 -15 4 -15 6 0 10 7 10 15 0 8 -2 15 -4 15 -2 0
-6 -7 -10 -15z"/>
<path d="M750 2230 c0 -19 3 -21 12 -12 9 9 9 15 0 24 -9 9 -12 7 -12 -12z"/>
<path d="M796 2221 c-4 -7 -5 -15 -2 -18 9 -9 19 4 14 18 -4 11 -6 11 -12 0z"/>
<path d="M697 2203 c-4 -3 -7 -11 -7 -17 0 -6 5 -5 12 2 6 6 9 14 7 17 -3 3
-9 2 -12 -2z"/>
<path d="M746 2193 c-11 -11 -6 -23 8 -23 8 0 17 4 20 9 7 10 -19 23 -28 14z"/>
<path d="M750 2146 c0 -9 5 -16 10 -16 6 0 10 4 10 9 0 6 -4 13 -10 16 -5 3
-10 -1 -10 -9z"/>
<path d="M815 2130 c-3 -5 -1 -10 4 -10 6 0 11 5 11 10 0 6 -2 10 -4 10 -3 0
-8 -4 -11 -10z"/>
<path d="M2115 4560 c0 -22 4 -39 10 -37 15 5 17 40 3 60 -11 15 -13 12 -13
-23z"/>
<path d="M2046 4574 c-19 -19 -20 -25 -3 -48 9 -13 20 -16 35 -12 26 9 38 42
22 61 -16 19 -35 19 -54 -1z"/>
<path d="M1944 4516 c-11 -28 1 -51 27 -54 29 -3 44 18 34 49 -8 23 -53 26
-61 5z"/>
<path d="M2040 4461 c-13 -25 -13 -27 6 -45 21 -22 31 -20 50 9 13 20 14 28 4
40 -17 21 -47 19 -60 -4z"/>
<path d="M2127 4467 c-4 -10 -7 -28 -7 -40 1 -20 2 -20 11 -4 6 10 9 28 7 40
-3 20 -4 20 -11 4z"/>
<path d="M1967 4433 c-12 -11 -8 -23 8 -23 8 0 15 7 15 15 0 16 -12 20 -23 8z"/>
<path d="M4030 4243 c-3 -56 -1 -99 3 -94 4 4 6 50 5 102 l-3 94 -5 -102z"/>
<path d="M4023 4075 c0 -33 2 -45 4 -27 2 18 2 45 0 60 -2 15 -4 0 -4 -33z"/>
<path d="M1827 4091 c3 -10 17 -21 31 -25 42 -9 131 -69 110 -74 -25 -5 -25
-54 0 -50 20 3 53 -25 71 -59 6 -13 16 -23 22 -23 6 0 1 16 -11 35 -17 27 -18
34 -6 29 9 -3 16 -3 16 0 0 14 -41 86 -48 84 -14 -3 -79 30 -129 66 -58 41
-63 43 -56 17z"/>
<path d="M4013 3950 c0 -30 2 -43 4 -27 2 15 2 39 0 55 -2 15 -4 2 -4 -28z"/>
<path d="M4002 3800 c0 -14 2 -19 5 -12 2 6 2 18 0 25 -3 6 -5 1 -5 -13z"/>
<path d="M3992 3645 c0 -16 2 -22 5 -12 2 9 2 23 0 30 -3 6 -5 -1 -5 -18z"/>
<path d="M1956 3609 c-8 -42 0 -50 9 -9 4 17 5 34 2 36 -2 3 -7 -10 -11 -27z"/>
<path d="M669 3553 c-13 -16 -12 -17 4 -4 9 7 17 15 17 17 0 8 -8 3 -21 -13z"/>
<path d="M2580 3537 c-8 -7 -17 -21 -18 -32 -4 -22 -3 -21 21 18 19 30 19 32
-3 14z"/>
<path d="M1953 3513 c-10 -4 -13 -46 -13 -168 0 -135 3 -164 15 -169 8 -3 14
-13 13 -23 -4 -34 14 -104 25 -100 17 5 57 169 64 263 l6 80 -48 32 c-27 18
-52 32 -57 32 -14 0 -8 29 8 38 18 10 7 22 -13 15z"/>
<path d="M582 3408 c-28 -91 -42 -152 -57 -248 -9 -58 -25 -145 -36 -194 -24
-105 -20 -125 6 -29 10 38 24 80 31 94 7 15 17 71 20 125 4 55 17 139 30 189
22 88 26 128 6 63z"/>
<path d="M2320 3255 c0 -8 2 -15 4 -15 2 0 6 7 10 15 3 8 1 15 -4 15 -6 0 -10
-7 -10 -15z"/>
<path d="M3650 3200 c0 -5 7 -10 16 -10 8 0 12 5 9 10 -3 6 -10 10 -16 10 -5
0 -9 -4 -9 -10z"/>
<path d="M3740 3200 c0 -5 9 -10 21 -10 11 0 17 5 14 10 -3 6 -13 10 -21 10
-8 0 -14 -4 -14 -10z"/>
<path d="M3830 3200 c0 -6 45 -10 116 -10 74 0 113 4 109 10 -4 6 -53 10 -116
10 -66 0 -109 -4 -109 -10z"/>
<path d="M4090 3200 c0 -7 200 -10 583 -9 334 0 573 4 562 9 -29 13 -1145 13
-1145 0z"/>
<path d="M635 3179 c-4 -6 -5 -12 -2 -15 2 -3 7 2 10 11 7 17 1 20 -8 4z"/>
<path d="M3879 3155 c-4 -3 -54 -8 -112 -10 -76 -2 -116 -8 -148 -22 -73 -33
-163 -116 -220 -203 -29 -44 -56 -80 -60 -80 -4 0 -10 -13 -14 -28 -3 -16 -20
-39 -36 -51 -17 -13 -28 -25 -26 -28 3 -2 -1 -21 -10 -40 -9 -22 -12 -49 -8
-69 3 -19 -3 -81 -15 -144 -16 -83 -18 -119 -11 -148 5 -20 12 -59 16 -87 3
-27 12 -84 20 -125 7 -41 16 -121 19 -177 l5 -102 -27 -3 c-25 -3 -27 -7 -30
-54 -2 -44 -6 -53 -25 -58 -61 -16 -107 6 -107 52 0 12 -5 22 -11 22 -19 0
-89 -64 -89 -82 0 -18 -28 -38 -54 -38 -11 0 -16 14 -18 53 l-3 52 -95 1 c-52
0 -88 -1 -78 -3 18 -5 33 -33 17 -33 -6 0 -8 -4 -4 -9 3 -5 -3 -12 -12 -14
-14 -4 -13 -5 5 -6 18 -1 22 -7 22 -31 0 -18 -6 -33 -15 -36 -8 -4 -15 -12
-15 -20 0 -8 -4 -14 -10 -14 -6 0 -10 -75 -10 -205 0 -169 2 -205 14 -205 18
0 26 22 26 71 0 44 8 54 155 191 76 71 84 76 148 88 60 11 73 11 105 -4 24
-11 42 -28 51 -49 19 -45 34 -76 59 -120 12 -21 22 -44 22 -53 0 -8 -28 -45
-63 -82 -70 -75 -95 -121 -163 -301 -37 -97 -55 -132 -88 -167 -36 -37 -49
-44 -80 -44 -51 0 -73 13 -133 78 l-53 57 0 -437 0 -438 139 0 c139 0 140 0
160 26 12 15 21 40 21 57 0 18 9 40 21 53 12 13 23 33 25 46 1 13 16 55 33 93
16 39 32 78 36 89 5 18 6 18 26 0 33 -30 40 -50 28 -77 -8 -18 -7 -32 5 -62
12 -28 14 -46 7 -69 -5 -17 -14 -59 -18 -93 l-9 -63 343 0 c336 0 343 0 333
19 -5 11 -7 26 -4 34 3 10 -2 18 -14 21 -11 4 -23 13 -26 21 -10 26 10 112 33
141 l23 29 -24 6 c-20 5 -23 11 -20 46 3 49 24 103 49 124 32 29 117 69 144
69 15 0 53 -12 85 -27 33 -15 79 -34 103 -43 42 -15 45 -19 112 -148 61 -121
68 -142 75 -213 l7 -79 179 0 179 0 142 85 c197 118 284 187 316 250 24 46 26
60 24 165 -1 85 -5 117 -16 125 -35 26 -42 59 -44 210 -2 176 -3 1741 -2 1865
2 130 7 120 -53 114 -29 -3 -56 -8 -60 -10 -4 -2 -9 0 -13 6 -10 17 -35 11
-35 -7 0 -12 -3 -14 -8 -7 -4 7 -23 11 -42 9 -46 -4 -44 -3 -31 -19 7 -9 8
-17 3 -20 -6 -3 -12 5 -16 17 -6 25 -35 33 -37 10 -3 -27 -4 -32 -12 -40 -5
-4 -7 5 -5 22 3 26 0 29 -29 32 -34 3 -54 -14 -33 -27 8 -5 8 -10 2 -14 -11
-7 -25 21 -17 34 3 5 -4 8 -15 7 -18 -1 -25 -15 -21 -39 0 -5 -4 -8 -9 -8 -6
0 -8 10 -4 24 5 22 3 24 -31 24 -31 0 -36 -3 -32 -19 3 -10 1 -22 -4 -25 -5
-3 -9 0 -9 5 0 6 -9 11 -20 11 -18 0 -24 -8 -17 -27 1 -5 6 -7 11 -5 5 2 21
-11 36 -29 l28 -31 5 29 c3 24 4 23 6 -9 1 -29 -2 -36 -14 -32 -10 4 -15 0
-15 -11 0 -11 5 -15 15 -12 9 4 24 -7 40 -26 l26 -32 -4 36 c-3 26 -1 36 10
36 10 0 12 -8 7 -31 -4 -17 -7 -36 -7 -43 0 -6 -7 -9 -15 -5 -9 3 -13 1 -9 -4
3 -6 1 -16 -4 -24 -8 -11 -9 -8 -6 14 5 32 -18 67 -39 59 -8 -3 -12 -9 -9 -13
3 -4 -3 -11 -12 -14 -14 -6 -15 -9 -4 -15 11 -7 11 -13 1 -32 -10 -17 -10 -24
-1 -27 6 -2 11 -10 11 -18 0 -8 5 -14 11 -14 6 0 8 9 4 23 -11 35 -11 39 5 42
12 2 15 -5 12 -33 l-5 -36 30 33 30 32 26 -30 c28 -34 27 -67 -4 -76 -12 -4
-19 -16 -19 -31 0 -24 0 -24 28 6 31 35 49 33 75 -8 l16 -27 1 28 c0 15 -5 27
-11 27 -5 0 -7 5 -3 12 4 7 3 8 -5 4 -6 -4 -14 -1 -17 8 -3 8 -11 13 -18 10
-7 -3 -13 7 -14 26 -1 17 -3 36 -5 42 -1 6 5 12 13 13 12 2 15 -5 12 -33 l-5
-36 30 33 30 33 32 -38 31 -39 31 36 31 36 24 -22 c26 -24 31 -45 12 -45 -6 0
-8 3 -5 7 4 3 0 15 -10 25 -15 17 -17 17 -35 2 -10 -10 -18 -23 -18 -29 0 -14
27 -28 40 -20 5 3 6 -10 3 -27 -6 -39 -13 -50 -13 -20 0 12 -5 22 -11 22 -5 0
-7 5 -4 10 3 6 -1 10 -9 10 -9 0 -16 4 -16 9 0 13 -34 8 -43 -7 -5 -7 -13 -9
-19 -6 -7 4 -8 2 -4 -4 4 -7 2 -12 -3 -12 -6 0 -11 -12 -11 -27 l1 -28 16 27
c25 39 44 43 69 14 15 -17 20 -33 16 -51 -3 -20 -1 -26 9 -23 20 7 59 -41 55
-66 -2 -11 -9 -20 -15 -18 -6 1 -14 -12 -18 -29 -6 -32 -23 -27 -26 8 0 13 -6
19 -14 16 -7 -3 -13 1 -13 9 0 7 -9 14 -20 14 -11 0 -20 -6 -20 -13 0 -7 7
-13 15 -13 8 0 24 -13 37 -30 21 -29 48 -40 48 -20 0 6 9 19 20 30 22 22 52
15 64 -15 8 -21 0 -19 -22 5 l-19 21 -16 -24 c-17 -26 -12 -71 7 -64 7 3 12
-7 13 -27 1 -18 -1 -23 -4 -11 -6 23 -23 36 -36 28 -4 -3 -1 -13 8 -23 12 -13
13 -23 6 -41 -5 -13 -10 -19 -11 -14 -1 20 -20 -21 -20 -45 l0 -24 17 24 c26
38 36 41 60 18 20 -19 30 -73 11 -62 -4 3 -5 10 -3 17 3 7 -3 23 -13 35 l-18
24 -17 -25 c-19 -30 -13 -67 11 -60 15 3 17 -3 12 -44 -4 -44 -5 -45 -8 -13
-4 35 -18 53 -35 43 -4 -3 -1 -13 8 -23 10 -11 14 -28 11 -45 -4 -20 -2 -25 9
-21 8 3 25 -8 41 -27 15 -18 22 -33 15 -35 -6 -2 -8 -9 -5 -14 4 -7 2 -8 -4
-4 -6 4 -9 13 -6 20 3 7 -3 21 -12 30 -16 17 -18 16 -35 -1 -23 -22 -16 -63 9
-56 14 3 17 -3 16 -37 -1 -22 -4 -40 -9 -39 -4 0 -13 -8 -21 -18 -7 -10 -14
-13 -14 -8 -1 18 -20 -20 -20 -40 0 -17 2 -17 17 5 32 47 49 47 75 2 11 -19
14 -33 8 -42 -10 -16 -10 -16 -14 18 -4 34 -27 45 -48 23 -21 -24 -14 -61 12
-54 10 3 21 -1 25 -8 5 -7 4 -10 -3 -5 -7 4 -10 -6 -9 -29 1 -19 -2 -35 -7
-34 -4 0 -14 -8 -22 -18 -7 -10 -14 -13 -14 -8 -1 6 -8 -3 -15 -20 -8 -18 -14
-23 -15 -13 0 9 -9 20 -20 23 -11 3 -20 12 -20 19 0 6 -8 12 -18 12 -10 0 -19
-6 -19 -12 0 -7 5 -10 12 -8 6 3 20 -4 30 -16 19 -21 8 -28 -14 -7 -10 10 -15
9 -25 -5 -16 -22 -30 -24 -22 -3 3 8 1 15 -4 15 -5 0 -12 -10 -15 -21 -6 -16
-9 -18 -15 -8 -5 7 -6 17 -4 21 3 4 0 8 -6 8 -6 0 -8 -10 -4 -24 3 -14 1 -33
-5 -43 -6 -10 -11 -13 -11 -7 0 7 -7 15 -16 18 -14 5 -15 4 -5 -8 9 -10 9 -20
3 -32 -9 -15 -10 -15 -17 6 -4 12 -8 30 -10 39 -1 9 -8 15 -15 13 -8 -2 -11 4
-7 17 3 13 -1 21 -15 24 -11 3 -17 10 -14 15 3 5 -3 17 -14 27 -11 10 -20 22
-20 27 0 5 -9 18 -20 30 -11 12 -20 30 -20 40 0 10 -7 18 -16 18 -10 0 -14 6
-10 15 3 8 2 15 -2 15 -4 0 -20 16 -35 35 -29 37 -30 47 -2 18 14 -14 18 -14
25 -2 6 9 4 17 -5 22 -25 14 -17 35 16 42 37 8 38 42 0 37 -13 -2 -28 2 -32
10 -6 10 -9 10 -9 1 0 -21 -101 -3 -127 22 -6 7 -9 16 -5 20 4 4 -3 3 -15 -4
-34 -18 -40 -13 -38 27 3 36 -3 30 -19 -21 -9 -30 -26 -9 -26 33 0 34 2 38 23
33 21 -5 21 -5 4 9 -19 14 -26 66 -12 88 6 10 4 12 -8 7 -12 -5 -17 -1 -17 13
0 11 4 20 9 20 5 0 8 27 7 61 -2 50 1 67 21 95 26 39 27 44 13 44 -5 0 -9 -3
-7 -7 1 -5 -2 -9 -7 -10 -5 -1 -13 -7 -17 -15 -7 -10 -9 -10 -9 2 0 9 5 21 11
27 9 9 8 19 -6 39 -12 19 -14 29 -7 32 15 5 16 32 1 32 -14 0 29 60 49 67 9 4
24 -4 39 -21 20 -24 23 -25 23 -8 0 12 -9 22 -21 25 -15 4 -20 11 -16 21 4 9
2 16 -2 16 -5 0 -12 -6 -14 -12 -4 -10 -6 -10 -6 0 -1 6 -6 12 -12 12 -5 0 -8
-4 -5 -9 3 -5 -6 -21 -19 -35 -26 -28 -30 -25 -37 19 -2 15 2 19 20 18 25 -3
30 18 8 36 -11 9 -15 8 -20 -6 -6 -15 -8 -15 -16 -3 -14 22 -12 37 7 44 11 5
26 -4 45 -26 23 -26 29 -29 26 -13 -2 11 -11 26 -20 33 -10 7 -18 19 -18 25 0
7 -9 13 -20 13 -11 0 -20 -7 -20 -16 0 -13 -2 -13 -9 -1 -5 8 -7 20 -4 28 3 7
-1 13 -8 13 -7 0 -9 3 -6 7 4 3 2 13 -4 22 -6 9 3 1 20 -18 l31 -35 33 39 33
38 28 -34 28 -33 -5 35 c-3 28 -1 35 14 36 18 2 18 -8 4 -60 -6 -21 -5 -21 13
2 22 28 20 85 -4 110 -19 20 -44 -3 -44 -41 0 -16 -4 -27 -9 -24 -15 10 -5 56
17 77 20 18 58 27 48 11 -2 -4 4 -19 15 -32 l19 -25 0 28 c0 15 -5 27 -11 27
-5 0 -7 5 -3 11 3 6 14 9 24 6 12 -3 20 2 24 17 9 34 7 39 -14 33 -12 -3 -18
-1 -14 5 4 6 -2 8 -12 6 -12 -2 -19 -12 -19 -25 0 -12 -4 -25 -8 -29 -4 -4 -7
-2 -7 4 0 6 -8 13 -17 15 -17 4 -17 5 0 6 24 1 22 17 -3 17 -14 0 -20 -7 -20
-23 0 -13 -5 -23 -10 -23 -6 0 -8 11 -4 25 5 18 2 25 -9 25 -8 0 -18 -6 -20
-12 -4 -10 -6 -10 -6 0 -1 6 -8 12 -17 12 -11 0 -15 -6 -11 -20 3 -11 1 -23
-4 -26 -5 -3 -9 -1 -9 4 0 5 -9 12 -20 15 -13 3 -20 0 -20 -10 0 -8 -5 -11
-10 -8 -18 11 8 34 30 28 11 -3 20 -1 20 3 0 5 -27 10 -60 10 -33 1 -60 -3
-60 -8 0 -26 -90 113 -95 147 -1 6 -3 16 -3 23 -1 6 -8 12 -14 12 -7 0 -26 20
-43 44 -32 47 -30 45 -131 94 -70 34 -124 49 -135 37z m-86 -27 c12 -1 -5 -4
-38 -7 -33 -4 -64 -4 -70 -1 -12 6 55 19 73 14 8 -2 23 -5 35 -6z m127 -4 c0
-2 -7 -4 -15 -4 -8 0 -15 4 -15 10 0 5 7 7 15 4 8 -4 15 -8 15 -10z m-245 -33
c-6 -5 -21 -12 -35 -15 l-25 -7 25 15 c28 17 50 21 35 7z m376 -58 c13 -15 12
-15 -8 -4 -24 12 -29 21 -14 21 5 0 15 -7 22 -17z m-130 -20 c1 -10 3 -25 4
-33 1 -8 3 -25 4 -37 0 -13 17 -32 43 -50 23 -15 59 -46 80 -68 30 -32 38 -36
38 -21 0 34 11 10 31 -69 21 -87 23 -109 9 -100 -5 3 -10 -1 -10 -9 0 -11 -10
-16 -31 -16 -33 0 -69 -15 -69 -29 0 -5 17 -7 38 -5 59 7 65 -2 69 -108 3 -89
-11 -222 -26 -243 -4 -5 -16 -32 -26 -59 -10 -27 -39 -72 -65 -101 l-48 -53 5
-68 c6 -75 17 -105 36 -101 7 1 11 -6 11 -15 -1 -10 1 -18 5 -18 4 0 7 -48 7
-107 -1 -79 5 -137 22 -213 22 -98 23 -113 13 -217 -9 -91 -8 -130 4 -210 17
-113 14 -198 -10 -263 -8 -24 -13 -50 -11 -57 3 -7 2 -13 -2 -13 -5 0 -21 -33
-36 -72 -31 -80 -49 -106 -84 -119 -31 -12 -67 14 -93 66 -24 52 -92 159 -124
197 -14 16 -25 34 -25 39 0 5 -32 58 -71 116 -91 135 -192 343 -219 451 -32
128 -37 233 -14 285 10 23 21 44 24 47 31 30 33 41 9 67 l-24 27 27 -17 c15
-9 29 -17 32 -17 12 0 46 117 57 193 l12 85 -34 64 c-31 59 -33 69 -34 163 0
98 1 101 38 168 21 37 41 67 44 67 2 0 11 -7 19 -15 18 -17 54 -20 54 -4 0 6
7 3 16 -5 19 -20 33 -20 58 -1 18 14 18 15 -8 25 -15 5 -50 10 -77 10 -27 0
-49 4 -49 9 0 5 10 31 23 58 21 47 24 49 52 41 16 -4 31 -5 33 -3 9 9 -40 65
-51 58 -7 -4 -4 5 6 20 22 33 22 43 0 26 -15 -13 -15 -12 -3 11 13 25 13 25
-7 7 -18 -16 -21 -16 -27 -2 -3 9 -2 13 4 10 6 -3 10 0 10 8 0 8 10 27 22 43
13 15 16 24 8 19 -13 -8 -13 -6 -1 8 15 19 35 12 27 -9 -7 -20 4 -17 20 4 12
16 13 15 14 -5 0 -28 8 -28 40 -3 14 11 30 20 37 20 6 0 24 7 40 15 15 8 45
17 66 20 37 6 45 18 28 44 -7 10 -3 23 10 39 10 13 16 28 13 33 -3 5 0 9 5 9
6 0 12 -8 12 -17z m-301 -28 c-7 -8 -17 -15 -23 -15 -6 0 -2 7 9 15 25 19 30
19 14 0z m-46 -4 c8 -13 -21 -34 -35 -25 -7 4 -9 3 -5 -4 3 -6 2 -13 -4 -17
-16 -10 -12 17 7 37 18 20 29 23 37 9z m567 -114 c-10 -9 -11 -8 -5 6 3 10 9
15 12 12 3 -3 0 -11 -7 -18z m64 -26 c2 -11 7 -26 10 -31 11 -18 25 -74 16
-64 -12 13 -41 92 -41 111 0 22 10 11 15 -16z m-16 -61 c0 -8 -6 -1 -13 15 -7
17 -11 34 -8 40 6 10 20 -27 21 -55z m-41 -17 c25 -72 42 -133 41 -153 0 -8
-7 6 -15 33 -8 26 -19 47 -24 47 -6 0 -10 12 -10 28 -1 15 -7 44 -14 65 -8 20
-10 37 -6 37 4 0 17 -26 28 -57z m162 7 c0 -5 -4 -10 -10 -10 -5 0 -10 5 -10
10 0 6 5 10 10 10 6 0 10 -4 10 -10z m715 0 c3 -5 1 -10 -4 -10 -6 0 -11 5
-11 10 0 6 2 10 4 10 3 0 8 -4 11 -10z m-670 -20 c3 -6 -1 -7 -9 -4 -18 7 -21
14 -7 14 6 0 13 -4 16 -10z m131 -2 c4 -7 3 -8 -4 -4 -8 5 -13 -6 -14 -36 l-1
-43 -4 38 c-2 20 -9 37 -14 37 -6 0 -7 5 -4 10 8 14 32 13 41 -2z m-277 -38
c0 -10 -3 -8 -9 5 -12 27 -12 43 0 25 5 -8 9 -22 9 -30z m223 12 c17 -28 18
-55 5 -68 -4 -4 -7 6 -7 23 0 62 -55 66 -62 5 -3 -26 -3 -26 -10 -4 -4 15 0
30 15 47 28 32 39 31 59 -3z m384 3 c14 -15 20 -32 17 -45 -7 -28 -21 -25 -16
3 3 14 -2 29 -11 36 -23 19 -46 -3 -46 -42 0 -32 -12 -30 -17 4 -3 21 25 68
41 69 5 0 19 -11 32 -25z m124 8 c20 -17 28 -73 11 -73 -4 0 -6 10 -4 23 5 27
-17 50 -41 41 -10 -4 -16 -18 -16 -35 0 -16 -4 -29 -10 -29 -18 0 -10 43 12
67 26 28 23 27 48 6z m150 -42 c0 -10 -5 -7 -13 8 -6 14 -17 26 -23 28 -19 6
-45 -27 -39 -48 4 -10 3 -19 -2 -19 -18 0 -11 45 9 67 l22 23 23 -22 c13 -12
23 -29 23 -37z m-753 17 c-3 -7 -5 -2 -5 12 0 14 2 19 5 13 2 -7 2 -19 0 -25z
m523 10 c0 -18 -2 -20 -9 -8 -6 8 -7 18 -5 22 9 14 14 9 14 -14z m130 12 c0
-5 -5 -10 -11 -10 -5 0 -7 5 -4 10 3 6 8 10 11 10 2 0 4 -4 4 -10z m153 -25
c-3 -9 -8 -14 -10 -11 -3 3 -2 9 2 15 9 16 15 13 8 -4z m-728 -55 c-2 -8 -4
-22 -4 -29 -1 -21 -20 0 -26 27 -3 15 1 20 15 19 10 -1 16 -7 15 -17z m481
-67 c-3 -14 -8 -28 -12 -32 -4 -3 -4 7 -1 23 3 20 -1 35 -15 50 l-19 21 -19
-25 c-10 -13 -15 -27 -11 -30 5 -3 5 -14 1 -25 -6 -17 -7 -16 -12 8 -5 25 12
62 36 79 18 13 57 -40 52 -69z m26 40 c-3 -16 -7 -22 -10 -15 -4 13 4 42 11
42 2 0 2 -12 -1 -27z m91 2 c14 -20 16 -29 7 -43 -11 -16 -11 -16 -6 1 3 11
-2 27 -14 39 l-20 22 -19 -21 c-13 -14 -17 -29 -14 -49 7 -35 -2 -30 -10 7 -7
29 18 69 43 69 8 -1 23 -12 33 -25z m73 -3 c-10 -12 -14 -27 -10 -38 5 -16 4
-16 -5 -4 -6 8 -11 17 -11 20 0 10 34 49 39 44 2 -2 -3 -12 -13 -22z m49 8
c10 -11 16 -20 13 -20 -3 0 -13 9 -23 20 -10 11 -16 20 -13 20 3 0 13 -9 23
-20z m-401 -28 c3 -5 -1 -9 -9 -9 -8 0 -12 4 -9 9 3 4 7 8 9 8 2 0 6 -4 9 -8z
m-484 -24 c0 -13 3 -34 5 -48 5 -21 4 -22 -3 -5 -17 37 -23 75 -12 75 5 0 10
-10 10 -22z m-595 -47 c3 -5 1 -12 -5 -16 -5 -3 -10 1 -10 9 0 18 6 21 15 7z
m1331 -6 c-4 -24 -16 -30 -16 -7 0 12 4 22 9 22 5 0 8 -7 7 -15z m155 -27 c-3
-21 -6 -26 -9 -15 -3 17 3 47 11 47 2 0 1 -15 -2 -32z m-51 -22 c0 -3 -4 -8
-10 -11 -5 -3 -10 -1 -10 4 0 6 5 11 10 11 6 0 10 -2 10 -4z m48 -47 l14 -24
-20 25 -21 25 -20 -22 c-12 -12 -18 -28 -15 -36 3 -8 1 -18 -5 -21 -19 -12 -4
57 15 71 23 17 34 13 52 -18z m42 -78 c0 -5 -9 -12 -19 -16 -13 -4 -21 -17
-23 -38 -3 -28 -4 -29 -10 -9 -4 15 0 30 15 47 23 26 37 32 37 16z m-73 -33
c-3 -7 -5 -2 -5 12 0 14 2 19 5 13 2 -7 2 -19 0 -25z m61 -73 c-3 -3 -9 2 -12
12 -6 14 -5 15 5 6 7 -7 10 -15 7 -18z m-18 -51 c0 -8 -5 -12 -10 -9 -6 4 -8
11 -5 16 9 14 15 11 15 -7z m30 -33 c0 -5 -9 -12 -19 -16 -13 -4 -21 -17 -23
-38 -3 -28 -4 -29 -10 -9 -4 15 0 30 15 47 23 26 37 32 37 16z m-12 -106 c-3
-3 -9 2 -12 12 -6 14 -5 15 5 6 7 -7 10 -15 7 -18z m-58 -29 c0 -3 -4 -8 -10
-11 -5 -3 -10 -1 -10 4 0 6 5 11 10 11 6 0 10 -2 10 -4z m70 -54 c0 -4 -9 -13
-19 -19 -11 -7 -21 -25 -23 -40 -3 -26 -4 -27 -10 -5 -4 15 0 30 15 47 22 25
37 32 37 17z m-943 -89 c-2 -16 -4 -5 -4 22 0 28 2 40 4 28 2 -13 2 -35 0 -50z
m-1157 -103 c0 -5 -5 -10 -11 -10 -5 0 -7 5 -4 10 3 6 8 10 11 10 2 0 4 -4 4
-10z m2100 2 c0 -4 -9 -13 -19 -19 -11 -7 -21 -25 -23 -40 -3 -26 -4 -27 -10
-5 -4 15 0 30 15 47 22 25 37 32 37 17z m-2160 -72 c0 -11 -4 -20 -10 -20 -5
0 -10 9 -10 20 0 11 5 20 10 20 6 0 10 -9 10 -20z m-170 -128 c31 20 33 3 6
-39 -14 -21 -28 -53 -32 -71 -4 -17 -10 -32 -15 -32 -11 0 -12 49 -2 115 4 35
8 43 15 31 7 -13 12 -13 28 -4z m2330 10 c0 -4 -9 -13 -19 -19 -11 -7 -21 -25
-23 -40 -3 -26 -4 -26 -10 -6 -4 15 1 30 16 47 21 25 36 32 36 18z m-42 -112
c15 -25 4 -27 -14 -2 -12 16 -14 16 -34 -5 -36 -39 -38 -22 -3 19 17 19 33 16
51 -12z m-89 -374 c-11 -9 -69 -14 -69 -6 0 6 17 10 37 10 20 0 34 -2 32 -4z
m1 -52 c0 -2 -12 -4 -26 -4 -14 0 -23 4 -20 9 6 8 46 4 46 -5z m-319 -431 c5
-13 15 -23 24 -23 8 0 15 -9 15 -19 0 -11 5 -23 10 -26 38 -24 -66 -132 -169
-177 l-63 -27 7 87 c7 89 12 105 62 226 l28 68 39 -43 c21 -24 42 -54 47 -66z"/>
<path d="M3956 2476 c9 -24 44 -40 57 -27 16 16 30 13 23 -4 -6 -16 18 -20 48
-9 38 15 -3 39 -84 50 -44 6 -50 5 -44 -10z m39 -6 c3 -5 1 -10 -4 -10 -6 0
-11 5 -11 10 0 6 2 10 4 10 3 0 8 -4 11 -10z"/>
<path d="M3811 974 c0 -11 3 -14 6 -6 3 7 2 16 -1 19 -3 4 -6 -2 -5 -13z"/>
<path d="M2372 3026 c7 -8 15 -12 17 -11 5 6 -10 25 -20 25 -5 0 -4 -6 3 -14z"/>
<path d="M561 3003 c-1 -12 4 -25 9 -28 12 -7 12 2 0 30 -8 19 -9 19 -9 -2z"/>
<path d="M1960 2981 c0 -5 5 -13 10 -16 6 -3 10 -2 10 4 0 5 -4 13 -10 16 -5
3 -10 2 -10 -4z"/>
<path d="M1987 2863 c-2 -5 -1 -30 3 -58 l7 -50 2 58 c1 54 -2 67 -12 50z"/>
<path d="M461 2844 c0 -11 3 -14 6 -6 3 7 2 16 -1 19 -3 4 -6 -2 -5 -13z"/>
<path d="M3008 2833 c6 -2 18 -2 25 0 6 3 1 5 -13 5 -14 0 -19 -2 -12 -5z"/>
<path d="M451 2804 c0 -11 3 -14 6 -6 3 7 2 16 -1 19 -3 4 -6 -2 -5 -13z"/>
<path d="M4640 2798 c0 -11 28 -10 35 1 3 6 -4 9 -15 8 -11 -1 -20 -5 -20 -9z"/>
<path d="M441 2764 c0 -11 3 -14 6 -6 3 7 2 16 -1 19 -3 4 -6 -2 -5 -13z"/>
<path d="M4600 2709 c0 -28 -4 -37 -13 -33 -8 3 -14 -2 -14 -11 0 -9 6 -14 13
-11 7 3 27 -12 44 -32 l31 -37 19 25 c21 27 21 41 0 48 -7 3 -10 0 -7 -5 4 -6
0 -19 -8 -29 -11 -15 -15 -16 -15 -4 -1 8 -3 23 -5 32 -2 10 0 17 3 17 41 -6
58 26 27 51 -22 18 -45 -4 -45 -43 0 -33 -12 -30 -17 5 -2 11 4 29 13 40 10
10 15 18 13 19 -2 0 -12 2 -21 4 -15 3 -18 -4 -18 -36z"/>
<path d="M4448 2621 c-10 -11 -14 -29 -11 -45 5 -25 6 -25 19 -9 15 20 17 15
14 -37 l-1 -35 30 35 31 35 30 -35 c28 -33 30 -34 30 -12 0 15 -7 26 -20 29
-20 5 -29 43 -10 43 6 0 10 -7 10 -16 0 -14 3 -14 15 -4 17 14 18 11 15 -40
l-1 -35 29 34 c17 18 35 30 41 27 7 -4 11 0 11 11 0 12 -7 19 -20 19 -11 0
-20 -6 -20 -13 0 -6 -5 -15 -11 -19 -8 -5 -10 2 -7 21 7 35 -20 69 -42 55 -8
-5 -11 -10 -6 -10 5 0 -3 -9 -18 -21 -14 -11 -30 -17 -36 -14 -5 3 -10 -3 -10
-14 0 -12 -5 -21 -11 -21 -7 0 -9 11 -6 27 3 17 -1 33 -12 44 -16 18 -18 18
-33 0z m26 -19 c3 -5 -1 -9 -9 -9 -8 0 -12 4 -9 9 3 4 7 8 9 8 2 0 6 -4 9 -8z"/>
<path d="M396 2600 c-5 -19 -19 -62 -32 -95 -13 -34 -17 -52 -9 -41 8 11 15
26 15 34 0 8 6 12 13 9 10 -4 12 3 9 27 l-5 31 37 -37 c32 -33 66 -50 66 -32
0 9 -28 34 -38 34 -15 0 -40 43 -44 76 l-4 29 -8 -35z"/>
<path d="M4897 2520 c-16 -16 -17 -19 -2 -33 17 -17 40 -13 49 8 2 7 -3 20
-12 28 -15 13 -19 13 -35 -3z"/>
<path d="M4512 2518 c-16 -16 -15 -35 3 -42 20 -7 45 3 45 18 0 13 -20 36 -30
36 -3 0 -11 -5 -18 -12z"/>
<path d="M4643 2523 c-22 -8 -14 -39 13 -51 14 -7 23 -8 20 -3 -4 5 0 11 6 14
10 3 10 9 2 23 -12 20 -23 25 -41 17z"/>
<path d="M4773 2523 c-22 -8 -14 -39 13 -51 14 -7 23 -8 20 -3 -4 5 0 11 6 14
10 3 10 9 2 23 -12 20 -23 25 -41 17z"/>
<path d="M2340 2479 c0 -5 5 -7 10 -4 6 3 10 8 10 11 0 2 -4 4 -10 4 -5 0 -10
-5 -10 -11z"/>
<path d="M4572 2481 c2 -20 -4 -31 -17 -31 -9 0 -15 -9 -15 -21 0 -21 1 -20
21 5 27 34 45 33 69 -6 l20 -33 0 28 c0 15 -5 27 -11 27 -5 0 -7 5 -4 10 4 6
1 9 -7 8 -7 -2 -12 2 -11 8 1 6 -9 12 -22 12 -13 0 -24 -3 -23 -7z"/>
<path d="M4700 2474 c0 -7 -6 -17 -14 -21 -7 -4 -17 -19 -21 -32 -5 -15 -4
-21 3 -17 6 3 17 -2 24 -13 11 -16 15 -16 26 -5 7 8 8 14 2 14 -5 0 -10 5 -10
10 0 6 6 10 14 10 15 0 16 -16 3 -36 -4 -7 -1 -14 7 -17 21 -8 25 37 6 61 -17
21 -18 21 -35 2 -10 -11 -20 -18 -23 -15 -8 7 29 45 44 45 7 0 22 -12 33 -27
20 -27 20 -27 21 -5 0 12 -5 22 -11 22 -5 0 -7 5 -3 12 4 6 3 8 -4 4 -6 -3
-14 -1 -19 6 -11 17 -43 19 -43 2z"/>
<path d="M4575 2427 c-12 -19 -14 -30 -6 -44 6 -10 11 -14 11 -10 0 4 8 3 19
-2 16 -9 20 -7 23 13 3 13 -3 34 -12 46 l-17 23 -18 -26z m33 -26 c-4 -19 -22
-18 -26 2 -2 7 4 14 13 14 9 0 15 -7 13 -16z"/>
<path d="M4829 2427 c-9 -14 -13 -31 -9 -47 6 -23 7 -24 17 -6 9 16 11 16 16
2 4 -9 11 -16 18 -16 6 0 9 7 6 15 -4 8 -2 17 3 20 10 6 -16 55 -29 55 -3 0
-13 -11 -22 -23z m31 -17 c0 -5 -5 -10 -11 -10 -5 0 -7 5 -4 10 3 6 8 10 11
10 2 0 4 -4 4 -10z"/>
<path d="M4958 2428 c-17 -28 -12 -69 7 -62 24 10 36 -5 24 -27 -15 -29 -5
-35 19 -11 16 16 17 21 5 37 -8 12 -10 22 -4 28 10 10 -14 57 -29 57 -4 0 -14
-10 -22 -22z"/>
<path d="M355 2430 c3 -5 8 -10 11 -10 2 0 4 5 4 10 0 6 -5 10 -11 10 -5 0 -7
-4 -4 -10z"/>
<path d="M4457 2434 c-13 -13 -7 -26 8 -20 9 3 15 0 15 -9 0 -22 -18 -27 -29
-8 -5 10 -12 15 -16 11 -4 -3 -2 -15 4 -25 6 -10 11 -14 11 -10 0 4 9 3 19 -2
15 -9 20 -7 25 12 6 23 -24 64 -37 51z"/>
<path d="M4510 2375 c0 -6 8 -11 18 -11 10 0 19 5 19 11 0 6 -9 11 -19 11 -10
0 -18 -5 -18 -11z"/>
<path d="M4636 2374 c-3 -7 5 -11 18 -11 13 0 23 5 23 13 0 15 -35 14 -41 -2z"/>
<path d="M4763 2374 c0 -8 5 -14 11 -13 22 3 37 -1 33 -8 -2 -5 4 -16 15 -25
17 -17 18 -17 18 0 0 9 -9 23 -20 30 -12 7 -18 16 -16 21 3 5 -5 9 -18 9 -13
0 -23 -7 -23 -14z"/>
<path d="M4896 2379 c2 -5 -4 -14 -16 -21 -11 -7 -20 -22 -20 -33 0 -17 2 -17
17 5 9 14 21 28 27 32 11 7 37 -1 33 -11 -2 -3 4 -14 15 -23 17 -17 18 -17 18
0 0 9 -9 23 -20 30 -12 7 -18 16 -16 21 3 5 -5 9 -19 9 -14 0 -22 -4 -19 -9z"/>
<path d="M300 2339 c0 -17 67 -99 81 -99 19 0 7 22 -36 68 -27 28 -45 41 -45
31z"/>
<path d="M4435 2330 c10 -11 19 -20 21 -20 1 0 0 9 -3 20 -3 11 -12 20 -21 20
-13 0 -12 -3 3 -20z"/>
<path d="M4473 2330 c-1 -11 0 -20 2 -20 2 0 9 9 15 20 8 15 8 20 -3 20 -7 0
-13 -9 -14 -20z"/>
<path d="M4565 2330 c20 -23 29 -21 19 4 -3 9 -13 16 -22 16 -13 0 -12 -3 3
-20z"/>
<path d="M4603 2330 c-1 -11 -1 -20 0 -20 2 0 10 9 20 20 16 19 16 20 -1 20
-11 0 -18 -8 -19 -20z"/>
<path d="M4691 2333 c7 -10 15 -20 16 -22 2 -2 3 5 3 17 0 14 -6 22 -16 22
-14 0 -15 -3 -3 -17z"/>
<path d="M4730 2328 c0 -12 1 -19 3 -17 1 2 9 12 16 22 12 14 11 17 -3 17 -10
0 -16 -8 -16 -22z"/>
<path d="M4641 2318 c-16 -25 -2 -43 28 -33 26 8 26 17 3 38 -16 15 -19 15
-31 -5z"/>
<path d="M4781 2328 c-1 -10 -5 -18 -11 -18 -5 0 -10 -5 -10 -11 0 -6 7 -8 16
-5 8 3 13 2 10 -3 -3 -5 0 -11 7 -14 9 -3 14 5 15 25 1 16 -2 27 -7 24 -5 -4
-12 0 -14 6 -3 8 -6 6 -6 -4z"/>
<path d="M4910 2329 c0 -6 -4 -8 -8 -5 -5 3 -8 -8 -8 -24 0 -19 4 -26 13 -23
7 3 10 9 7 14 -3 5 2 6 10 3 11 -4 16 0 16 14 0 11 -7 22 -15 26 -8 3 -15 1
-15 -5z"/>
<path d="M5022 2328 c-25 -25 -2 -55 33 -42 20 8 19 40 -1 48 -20 8 -18 8 -32
-6z"/>
<path d="M4500 2299 c0 -14 20 -20 40 -14 30 9 24 21 -10 21 -16 0 -30 -3 -30
-7z"/>
<path d="M4830 2280 c0 -9 8 -16 20 -16 12 0 20 7 20 16 0 9 -8 16 -20 16 -12
0 -20 -7 -20 -16z"/>
<path d="M4470 2277 c0 -11 39 -43 44 -35 1 2 -8 13 -21 25 -13 12 -23 17 -23
10z"/>
<path d="M4573 2276 c0 -6 9 -12 19 -12 10 0 18 5 18 11 0 6 -8 11 -18 12 -10
1 -19 -4 -19 -11z"/>
<path d="M4703 2276 c0 -8 6 -12 13 -9 6 2 24 -8 38 -24 32 -34 34 -27 4 13
-25 31 -55 43 -55 20z"/>
<path d="M4631 2237 c16 -31 18 -32 16 -8 -1 11 -7 23 -14 26 -11 4 -11 0 -2
-18z"/>
<path d="M4670 2241 c-6 -12 -7 -21 -1 -21 10 0 24 30 17 37 -2 3 -9 -5 -16
-16z"/>
<path d="M4799 2258 c0 -2 -3 -14 -5 -28 -4 -24 -4 -24 10 -5 18 24 20 35 6
35 -5 0 -10 -1 -11 -2z"/>
<path d="M4880 2251 c0 -5 6 -14 14 -20 12 -10 13 -8 9 8 -5 21 -23 30 -23 12z"/>
<path d="M4923 2245 c-9 -25 4 -29 17 -6 7 15 7 21 0 21 -6 0 -13 -7 -17 -15z"/>
<path d="M4456 2242 c-3 -5 1 -9 9 -9 8 0 12 4 9 9 -3 4 -7 8 -9 8 -2 0 -6 -4
-9 -8z"/>
<path d="M4580 2240 c-12 -7 -10 -9 7 -7 12 0 19 5 17 9 -6 10 -6 10 -24 -2z"/>
<path d="M4705 2240 c-3 -5 -3 -10 2 -10 4 0 2 -4 -6 -9 -10 -7 -11 -13 -2
-27 8 -13 11 -14 10 -4 -3 23 12 51 24 43 6 -3 7 -1 3 5 -9 15 -23 15 -31 2z"/>
<path d="M4837 2244 c-11 -11 3 -24 18 -18 8 4 12 10 9 15 -6 11 -18 12 -27 3z"/>
<path d="M4959 2234 c-16 -16 -14 -68 2 -58 5 3 7 15 3 28 -4 17 -1 23 11 23
12 0 15 -6 10 -24 -6 -26 9 -32 19 -7 6 16 -9 54 -22 54 -4 0 -15 -7 -23 -16z"/>
<path d="M4430 2213 c0 -5 5 -15 10 -23 8 -12 10 -11 10 8 0 12 -4 22 -10 22
-5 0 -10 -3 -10 -7z"/>
<path d="M4480 2209 c0 -5 -4 -7 -10 -4 -6 3 -7 -1 -4 -9 5 -14 24 -23 24 -12
0 2 3 11 6 20 3 9 1 16 -5 16 -6 0 -11 -5 -11 -11z"/>
<path d="M4560 2213 c0 -5 5 -15 10 -23 8 -12 10 -11 10 8 0 12 -4 22 -10 22
-5 0 -10 -3 -10 -7z"/>
<path d="M4610 2209 c0 -5 -4 -7 -10 -4 -6 3 -7 -1 -4 -9 5 -13 8 -13 20 -1
16 16 18 25 4 25 -5 0 -10 -5 -10 -11z"/>
<path d="M4740 2211 c0 -7 -4 -9 -10 -6 -6 4 -7 -1 -3 -11 6 -15 7 -15 15 1 6
9 7 19 4 22 -3 4 -6 1 -6 -6z"/>
<path d="M4819 2207 c6 -8 8 -17 4 -20 -3 -4 -2 -7 4 -7 6 0 14 7 17 16 3 8 2
12 -4 9 -6 -3 -10 -1 -10 4 0 6 -5 11 -11 11 -8 0 -9 -4 0 -13z"/>
<path d="M4863 2198 c-2 -18 0 -20 7 -8 12 18 13 30 2 30 -4 0 -9 -10 -9 -22z"/>
<path d="M4510 2185 c0 -6 8 -11 18 -12 10 -1 19 4 19 11 0 6 -9 12 -19 12
-10 0 -18 -5 -18 -11z"/>
<path d="M4640 2185 c0 -6 8 -11 18 -12 10 -1 19 4 19 11 0 6 -9 12 -19 12
-10 0 -18 -5 -18 -11z"/>
<path d="M4763 2185 c0 -5 10 -11 22 -11 12 -1 22 4 22 11 0 7 -10 12 -22 11
-12 0 -22 -5 -22 -11z"/>
<path d="M4893 2186 c0 -8 10 -13 23 -13 13 0 21 4 18 11 -6 16 -41 17 -41 2z"/>
<path d="M5020 2186 c0 -8 11 -13 24 -13 15 0 23 4 20 11 -6 16 -44 18 -44 2z"/>
<path d="M2039 2173 c-3 -52 0 -135 5 -141 3 -3 6 31 6 76 0 45 -2 82 -5 82
-3 0 -5 -8 -6 -17z"/>
<path d="M4426 2148 c3 -4 9 -8 15 -8 5 0 9 4 9 8 0 5 -7 9 -15 9 -8 0 -12 -4
-9 -9z"/>
<path d="M4475 2150 c-3 -5 -2 -10 4 -10 5 0 13 5 16 10 3 6 2 10 -4 10 -5 0
-13 -4 -16 -10z"/>
<path d="M4560 2153 c0 -5 5 -15 10 -23 8 -12 10 -11 10 8 0 12 -4 22 -10 22
-5 0 -10 -3 -10 -7z"/>
<path d="M4603 2139 c-1 -12 -1 -20 0 -18 2 2 9 12 16 22 11 14 11 17 -1 17
-7 0 -14 -10 -15 -21z"/>
<path d="M4691 2143 c7 -10 15 -20 16 -22 2 -2 3 5 3 17 0 14 -6 22 -16 22
-14 0 -15 -3 -3 -17z"/>
<path d="M4730 2138 c0 -12 1 -19 3 -17 1 2 9 12 16 22 12 14 11 17 -3 17 -10
0 -16 -8 -16 -22z"/>
<path d="M4821 2143 c7 -10 14 -20 16 -22 1 -2 1 6 0 18 -1 11 -8 21 -15 21
-12 0 -12 -3 -1 -17z"/>
<path d="M4860 2138 c0 -12 1 -19 3 -17 1 2 9 12 16 22 12 14 11 17 -3 17 -10
0 -16 -8 -16 -22z"/>
<path d="M4951 2143 c7 -10 14 -20 16 -22 1 -2 1 6 0 18 -1 11 -8 21 -15 21
-12 0 -12 -3 -1 -17z"/>
<path d="M4987 2140 c-3 -11 -2 -20 2 -20 3 0 12 9 19 20 10 16 10 20 -2 20
-7 0 -16 -9 -19 -20z"/>
<path d="M4902 2125 c-12 -27 -1 -42 21 -28 10 6 11 13 2 30 l-12 23 -11 -25z"/>
<path d="M5019 2129 c-9 -17 -8 -23 2 -30 34 -21 63 7 39 36 -17 20 -27 19
-41 -6z"/>
<path d="M4520 2109 c0 -5 -4 -7 -10 -4 -5 3 -10 1 -10 -4 0 -6 9 -11 20 -11
11 0 20 7 20 15 0 8 -4 15 -10 15 -5 0 -10 -5 -10 -11z"/>
<path d="M4631 2108 c-1 -11 6 -18 18 -18 24 0 36 16 20 26 -6 3 -15 1 -19 -6
-6 -10 -9 -9 -13 1 -4 10 -6 9 -6 -3z"/>
<path d="M4767 2114 c-14 -14 -7 -25 13 -22 12 2 21 8 21 13 0 12 -24 18 -34
9z"/>
<path d="M4443 2085 c0 -8 4 -12 9 -9 5 3 6 10 3 15 -9 13 -12 11 -12 -6z"/>
<path d="M4573 2085 c0 -6 9 -11 19 -11 10 0 18 5 18 11 0 6 -8 11 -18 11 -10
0 -19 -5 -19 -11z"/>
<path d="M4703 2085 c0 -6 8 -11 17 -11 9 0 17 5 17 11 0 6 -8 11 -17 11 -9 0
-17 -5 -17 -11z"/>
<path d="M4833 2085 c0 -6 8 -11 17 -11 9 0 17 5 17 11 0 6 -8 11 -17 11 -9 0
-17 -5 -17 -11z"/>
<path d="M4960 2083 c0 -7 6 -10 14 -7 8 3 24 -8 39 -27 24 -31 25 -31 20 -6
-3 14 -14 27 -25 30 -11 3 -17 10 -14 16 4 5 -2 9 -14 8 -11 -1 -20 -7 -20
-14z"/>
<path d="M4805 2060 c-3 -5 -1 -10 4 -10 6 0 11 5 11 10 0 6 -2 10 -4 10 -3 0
-8 -4 -11 -10z"/>
<path d="M4880 2065 c0 -15 18 -40 24 -34 3 3 -1 14 -9 25 -8 10 -14 15 -15 9z"/>
<path d="M4935 2062 c-5 -4 -12 -16 -13 -27 -4 -23 0 -20 17 13 12 24 12 26
-4 14z"/>
<path d="M4456 2052 c-3 -5 1 -9 9 -9 8 0 12 4 9 9 -3 4 -7 8 -9 8 -2 0 -6 -4
-9 -8z"/>
<path d="M4586 2052 c-3 -5 1 -9 9 -9 8 0 12 4 9 9 -3 4 -7 8 -9 8 -2 0 -6 -4
-9 -8z"/>
<path d="M4710 2050 c-12 -7 -10 -9 7 -7 12 0 19 5 17 9 -6 10 -6 10 -24 -2z"/>
<path d="M4836 2052 c-3 -4 4 -9 15 -9 23 -2 25 3 4 10 -8 4 -16 3 -19 -1z"/>
<path d="M4965 2050 c-3 -5 1 -10 10 -10 9 0 13 5 10 10 -3 6 -8 10 -10 10 -2
0 -7 -4 -10 -10z"/>
<path d="M4660 2029 c0 -5 5 -7 10 -4 6 3 10 8 10 11 0 2 -4 4 -10 4 -5 0 -10
-5 -10 -11z"/>
<path d="M4430 2023 c0 -5 5 -15 10 -23 8 -12 10 -11 10 8 0 12 -4 22 -10 22
-5 0 -10 -3 -10 -7z"/>
<path d="M4480 2020 c0 -5 5 -10 10 -10 6 0 10 5 10 10 0 6 -4 10 -10 10 -5 0
-10 -4 -10 -10z"/>
<path d="M4560 2023 c0 -5 5 -15 10 -23 8 -12 10 -11 10 8 0 12 -4 22 -10 22
-5 0 -10 -3 -10 -7z"/>
<path d="M4610 2020 c0 -5 5 -10 10 -10 6 0 10 5 10 10 0 6 -4 10 -10 10 -5 0
-10 -4 -10 -10z"/>
<path d="M4674 2008 c-17 -20 -17 -21 -1 -8 16 12 20 12 27 -1 7 -10 9 -8 7 9
-2 28 -9 28 -33 0z"/>
<path d="M4733 2010 c-1 -16 1 -17 12 -7 7 6 11 15 8 20 -8 13 -19 7 -20 -13z"/>
<path d="M4810 2024 c0 -3 6 -12 14 -19 12 -12 15 -12 20 1 3 8 2 12 -4 9 -6
-3 -10 -1 -10 4 0 6 -4 11 -10 11 -5 0 -10 -3 -10 -6z"/>
<path d="M4863 2008 c-2 -18 0 -20 7 -8 12 18 13 30 2 30 -4 0 -9 -10 -9 -22z"/>
<path d="M4940 2023 c0 -14 19 -38 25 -32 8 8 -5 39 -16 39 -5 0 -9 -3 -9 -7z"/>
<path d="M4990 2019 c0 -5 -4 -7 -10 -4 -6 3 -7 -1 -4 -9 5 -14 24 -23 24 -12
0 2 3 11 6 20 3 9 1 16 -5 16 -6 0 -11 -5 -11 -11z"/>
<path d="M4893 1995 c0 -6 9 -11 19 -11 10 0 18 5 18 11 0 6 -8 11 -18 11 -10
0 -19 -5 -19 -11z"/>
<path d="M5023 1994 c0 -6 10 -11 23 -11 13 0 21 4 18 11 -2 6 -13 12 -23 12
-10 0 -18 -6 -18 -12z"/>
<path d="M4816 1958 c3 -5 10 -6 15 -3 13 9 11 12 -6 12 -8 0 -12 -4 -9 -9z"/>
<path d="M4860 1951 c0 -25 6 -27 13 -6 4 8 2 17 -3 20 -6 4 -10 -3 -10 -14z"/>
<path d="M4951 1953 c7 -10 14 -20 16 -22 1 -2 1 6 0 18 -1 11 -8 21 -15 21
-12 0 -12 -3 -1 -17z"/>
<path d="M4987 1950 c-3 -11 -2 -20 2 -20 3 0 12 9 19 20 10 16 10 20 -2 20
-7 0 -16 -9 -19 -20z"/>
<path d="M5035 1940 c-4 -11 -11 -18 -16 -15 -5 4 -9 2 -9 -4 0 -6 11 -13 25
-17 23 -6 25 -10 19 -43 -6 -35 -6 -36 10 -14 12 16 14 28 8 40 -5 10 -7 24
-5 30 3 7 -2 20 -11 28 -13 13 -15 13 -21 -5z"/>
<path d="M4513 1916 c-10 -11 -9 -15 3 -20 9 -3 12 -1 9 4 -3 6 -1 10 4 10 6
0 11 5 11 10 0 14 -13 12 -27 -4z"/>
<path d="M4650 1919 c0 -5 -4 -7 -10 -4 -5 3 -10 1 -10 -4 0 -13 3 -13 24 -5
18 7 22 24 6 24 -5 0 -10 -5 -10 -11z"/>
<path d="M4765 1919 c-4 -6 -4 -13 -1 -16 3 -4 6 -1 6 7 0 9 3 10 13 1 15 -12
30 -4 21 10 -7 12 -31 11 -39 -2z"/>
<path d="M4895 1920 c-3 -6 1 -7 9 -4 18 7 21 14 7 14 -6 0 -13 -4 -16 -10z"/>
<path d="M4471 1894 c0 -11 3 -14 6 -6 3 7 2 16 -1 19 -3 4 -6 -2 -5 -13z"/>
<path d="M4703 1895 c0 -8 4 -12 9 -9 5 3 6 10 3 15 -9 13 -12 11 -12 -6z"/>
<path d="M4840 1896 c7 -7 13 -7 20 0 6 6 3 10 -10 10 -13 0 -16 -4 -10 -10z"/>
<path d="M4981 1889 c12 -9 30 -27 40 -40 l18 -24 -6 23 c-3 12 -14 27 -25 33
-10 5 -16 14 -13 19 3 5 -4 8 -15 7 -21 -1 -21 -1 1 -18z"/>
<path d="M4836 1862 c-3 -5 1 -9 9 -9 8 0 12 4 9 9 -3 4 -7 8 -9 8 -2 0 -6 -4
-9 -8z"/>
<path d="M4966 1862 c-3 -5 1 -9 9 -9 8 0 12 4 9 9 -3 4 -7 8 -9 8 -2 0 -6 -4
-9 -8z"/>
<path d="M4733 1832 c-7 -4 -9 -13 -5 -19 5 -8 11 -7 19 3 14 15 3 27 -14 16z"/>
<path d="M4815 1830 c-3 -5 -1 -10 4 -10 6 0 11 5 11 10 0 6 -2 10 -4 10 -3 0
-8 -4 -11 -10z"/>
<path d="M4863 1818 c-2 -18 0 -20 7 -8 12 18 13 30 2 30 -4 0 -9 -10 -9 -22z"/>
<path d="M4940 1830 c0 -5 5 -10 11 -10 5 0 7 -4 4 -10 -3 -5 -2 -10 3 -10 6
0 13 7 16 16 3 8 2 12 -4 9 -6 -3 -10 -1 -10 4 0 6 -4 11 -10 11 -5 0 -10 -4
-10 -10z"/>
<path d="M4990 1818 c0 -19 2 -20 10 -8 13 19 13 30 0 30 -5 0 -10 -10 -10
-22z"/>
<path d="M5023 1804 c0 -8 5 -14 11 -13 22 3 36 -1 34 -8 -2 -5 5 -19 15 -33
17 -24 17 -24 17 -3 0 24 -38 67 -62 69 -8 1 -15 -5 -15 -12z"/>
<path d="M3027 1803 c-4 -3 -7 -13 -7 -22 1 -13 3 -13 11 2 11 19 8 33 -4 20z"/>
<path d="M3105 1786 c0 -13 3 -22 8 -19 4 2 7 13 7 24 0 10 -3 19 -7 19 -5 0
-8 -11 -8 -24z"/>
<path d="M4817 1769 c7 -7 15 -10 18 -7 3 3 -2 9 -12 12 -14 6 -15 5 -6 -5z"/>
<path d="M4860 1770 c0 -5 5 -10 11 -10 5 0 7 5 4 10 -3 6 -8 10 -11 10 -2 0
-4 -4 -4 -10z"/>
<path d="M4945 1770 c4 -6 11 -8 16 -5 14 9 11 15 -7 15 -8 0 -12 -5 -9 -10z"/>
<path d="M4990 1758 c0 -12 1 -19 3 -17 1 2 9 12 16 22 12 14 11 17 -3 17 -10
0 -16 -8 -16 -22z"/>
<path d="M5042 1758 c4 -10 1 -19 -8 -22 -21 -8 -17 -26 6 -26 28 0 36 26 14
47 -16 16 -17 16 -12 1z"/>
<path d="M3140 1750 c-17 -11 -8 -23 14 -18 9 2 12 8 8 15 -5 8 -13 9 -22 3z"/>
<path d="M4783 1721 c1 -12 6 -17 16 -13 10 4 11 7 3 10 -7 2 -10 8 -6 13 3 5
1 9 -5 9 -5 0 -9 -9 -8 -19z"/>
<path d="M4895 1729 c-4 -6 -4 -13 -1 -16 3 -4 6 0 6 8 0 11 2 11 10 -1 7 -11
10 -11 10 -2 0 7 5 10 12 6 7 -4 8 -3 4 4 -9 15 -33 15 -41 1z"/>
<path d="M4833 1705 c0 -6 8 -11 17 -11 9 0 17 5 17 11 0 6 -8 11 -17 11 -9 0
-17 -5 -17 -11z"/>
<path d="M4963 1705 c0 -6 8 -11 17 -11 9 0 17 5 17 11 0 6 -8 11 -17 11 -9 0
-17 -5 -17 -11z"/>
<path d="M4760 1673 c0 -5 5 -15 10 -23 7 -12 9 -10 7 8 -1 19 -17 33 -17 15z"/>
<path d="M4846 1672 c-3 -5 1 -9 9 -9 8 0 12 4 9 9 -3 4 -7 8 -9 8 -2 0 -6 -4
-9 -8z"/>
<path d="M4923 1659 c-1 -12 -1 -20 0 -18 2 2 9 12 16 22 11 14 11 17 -1 17
-7 0 -14 -10 -15 -21z"/>
<path d="M4966 1672 c-3 -4 4 -9 15 -9 23 -2 25 3 4 10 -8 4 -16 3 -19 -1z"/>
<path d="M5020 1659 c7 -11 14 -19 16 -16 7 7 -7 37 -17 37 -6 0 -5 -9 1 -21z"/>
<path d="M4740 1640 c0 -5 5 -10 11 -10 5 0 7 5 4 10 -3 6 -8 10 -11 10 -2 0
-4 -4 -4 -10z"/>
<path d="M4815 1640 c-3 -5 -1 -10 4 -10 6 0 11 5 11 10 0 6 -2 10 -4 10 -3 0
-8 -4 -11 -10z"/>
<path d="M4863 1628 c-2 -18 0 -20 7 -8 12 18 13 30 2 30 -4 0 -9 -10 -9 -22z"/>
<path d="M4947 1644 c-3 -5 1 -15 9 -22 16 -14 18 -5 5 17 -5 7 -11 9 -14 5z"/>
<path d="M4990 1628 c0 -19 2 -20 10 -8 13 19 13 30 0 30 -5 0 -10 -10 -10
-22z"/>
<path d="M4727 1619 c7 -7 15 -10 18 -7 3 3 -2 9 -12 12 -14 6 -15 5 -6 -5z"/>
<path d="M5023 1614 c0 -6 10 -11 23 -11 13 0 21 4 18 11 -2 6 -13 12 -23 12
-10 0 -18 -6 -18 -12z"/>
<path d="M4947 1579 c7 -7 15 -10 18 -7 3 3 -2 9 -12 12 -14 6 -15 5 -6 -5z"/>
<path d="M4990 1568 c0 -12 1 -19 3 -17 1 2 9 12 16 22 12 14 11 17 -3 17 -10
0 -16 -8 -16 -22z"/>
<path d="M5066 1582 c6 -4 16 -16 22 -27 11 -19 11 -18 12 8 0 21 -5 27 -22
27 -13 0 -18 -3 -12 -8z"/>
<path d="M5046 1558 c5 -7 2 -9 -8 -6 -9 4 -15 0 -15 -10 0 -21 15 -32 34 -25
18 7 17 40 -3 47 -10 4 -13 2 -8 -6z"/>
<path d="M4780 1541 c0 -5 7 -11 14 -14 10 -4 13 -1 9 9 -6 15 -23 19 -23 5z"/>
<path d="M4910 1540 c0 -6 4 -9 9 -6 5 4 12 1 14 -4 3 -6 4 -5 3 2 -3 15 -26
23 -26 8z"/>
<path d="M4833 1515 c0 -8 4 -12 9 -9 5 3 6 10 3 15 -9 13 -12 11 -12 -6z"/>
<path d="M4845 1480 c-3 -5 1 -10 10 -10 9 0 13 5 10 10 -3 6 -8 10 -10 10 -2
0 -7 -4 -10 -10z"/>
<path d="M4870 1450 c0 -5 5 -10 11 -10 5 0 7 5 4 10 -3 6 -8 10 -11 10 -2 0
-4 -4 -4 -10z"/>
<path d="M3169 1332 c-9 -4 -29 -23 -45 -42 l-29 -35 36 30 c20 17 44 35 55
42 20 13 9 16 -17 5z"/>
<path d="M2720 1135 c0 -24 5 -35 15 -35 10 0 15 11 15 35 0 24 -5 35 -15 35
-10 0 -15 -11 -15 -35z"/>
<path d="M4005 360 c3 -5 16 -10 28 -10 18 0 19 2 7 10 -20 13 -43 13 -35 0z"/>
<path d="M3950 163 c-64 -49 -70 -69 -10 -31 55 34 75 54 63 61 -4 3 -28 -11
-53 -30z"/>
<path d="M4025 31 c-22 -11 -32 -20 -23 -20 25 -1 122 21 133 31 18 16 -71 7
-110 -11z"/>
</g>
</svg>
